<svg viewBox="0 0 24 24" xmlns="http://www.w3.org/2000/svg"><path fill="#FFFFFF" d="M13.5 0A10.5 10.5 0 0 0 3 10.5c0 4.65 3.014 8.585 7.194 9.974.525.097.718-.228.718-.506 0-.25-.01-.91-.014-1.786-2.927.636-3.545-1.41-3.545-1.41-.478-1.215-1.168-1.538-1.168-1.538-.955-.653.072-.64.072-.64 1.056.074 1.611 1.084 1.611 1.084.938 1.608 2.462 1.144 3.062.875.094-.68.367-1.144.668-1.407-2.337-.265-4.793-1.168-4.793-5.201 0-1.148.41-2.087 1.082-2.822-.108-.266-.469-1.335.103-2.783 0 0 .883-.283 2.893 1.078A10.07 10.07 0 0 1 13.5 4.2c.894.004 1.795.12 2.634.357 2.008-1.361 2.89-1.078 2.89-1.078.573 1.448.212 2.517.104 2.783.673.735 1.082 1.674 1.082 2.822 0 4.04-2.46 4.932-4.803 5.193.377.325.714.966.714 1.947 0 1.406-.013 2.54-.013 2.885 0 .28.19.607.722.505A10.506 10.506 0 0 0 24 10.5C24 4.701 19.299 0 13.5 0z"/></svg>
