<svg viewBox="0 0 24 24" xmlns="http://www.w3.org/2000/svg"><path d="M22.501 0H9.173c-.478 0-.868.39-.868.868v7.498h6.507c.764 0 1.385.621 1.385 1.385v7.874h6.304c.478 0 .868-.39.868-.868V.868c0-.478-.39-.868-.868-.868z" fill="#4285F4"/><path d="M1.499 14.249c-.478 0-.868.39-.868.868v7.498c0 .478.39.868.868.868h13.328c.478 0 .868-.39.868-.868v-7.498c0-.478-.39-.868-.868-.868H1.499z" fill="#34A853"/><circle cx="17.25" cy="17.25" r="6.75" fill="#FBBC05"/><circle cx="17.25" cy="17.25" r="4.5" fill="#4285F4"/></svg>
