<svg width="991" height="205" viewBox="0 0 991 205" fill="none" xmlns="http://www.w3.org/2000/svg">
<g clip-path="url(#clip0_589_1520)">
<path d="M99.2786 0.445068V202.678H80.8925C37.5295 202.678 2.37695 170.064 2.37695 129.833V0.445068H99.2786Z" fill="#DF463D"/>
<path d="M407.232 102.51H562.866C583.947 102.51 601.036 118.365 601.036 137.924V169.14C601.036 188.699 583.947 204.554 562.866 204.554H407.232V102.51Z" fill="#FDB713"/>
<path d="M688.506 0.537354H715.385C757.578 0.537354 791.778 32.2697 791.778 71.4138V131.134C791.778 170.278 757.578 202.01 715.385 202.01H688.506V0.537354Z" fill="#FDB713"/>
<path d="M688.765 201.77V0.464111H608.014V201.77H688.765Z" fill="#FAED10"/>
<path d="M99.2812 0.445068V202.678H117.667C161.03 202.678 196.183 170.064 196.183 129.833V0.445068H99.2812Z" fill="#C92F27"/>
<path d="M301.222 202.635V35.9201C301.222 16.3615 284.132 0.506104 263.051 0.506104H240.364C219.283 0.506104 202.193 16.3615 202.193 35.9201V202.635H301.222Z" fill="#DF463D"/>
<path d="M301.222 202.635V35.9201C301.222 16.3615 284.132 0.506104 263.051 0.506104H240.364C219.283 0.506104 202.193 16.3615 202.193 35.9201V202.635H301.222Z" fill="#DF463D"/>
<path d="M400.958 202.635V35.9201C400.958 16.3615 383.869 0.506104 362.788 0.506104H339.393C318.312 0.506104 301.223 16.3615 301.223 35.9201V202.635H400.958Z" fill="#C92F27"/>
<path d="M601.04 0.445068H445.407C424.326 0.445068 407.236 16.3004 407.236 35.8588V67.0753C407.236 86.6339 424.326 102.489 445.407 102.489H601.04V0.445068Z" fill="#FAED10"/>
<path d="M987.599 151.217C974.117 174.441 951.913 191.389 925.876 198.329C899.831 205.271 872.082 201.637 848.732 188.228C825.383 174.819 808.35 152.733 801.369 126.829C794.394 100.925 798.044 73.3248 811.526 50.0996L899.562 100.658L987.599 151.217Z" fill="#FAED10"/>
<path d="M811.592 49.9804C818.283 38.4886 827.182 28.4202 837.785 20.3501C848.388 12.2797 860.476 6.36529 873.378 2.94464C886.28 -0.476067 899.727 -1.33604 912.962 0.413695C926.196 2.16349 938.949 6.48879 950.5 13.1427L899.564 100.649L811.592 49.9804Z" fill="#FDB713"/>
</g>
<defs>
<clipPath id="clip0_589_1520">
<rect width="991" height="205" fill="white"/>
</clipPath>
</defs>
</svg>
