<svg width="105" height="166" viewBox="0 0 105 166" fill="none" xmlns="http://www.w3.org/2000/svg">
<path d="M0.5 97.0093V43.6212H81.1392C110.762 43.6212 112.408 97.0093 82.7849 97.0093H0.5Z" fill="url(#paint0_linear_1_14441)"/>
<path d="M70.2009 154.48C82.1001 151.07 84.7995 147.39 86.695 139.525V100.238H0.5V139.525C2.80365 147.426 6.12194 150.846 16.9941 154.48V159.5C16.9941 162.814 19.6804 165.5 22.9941 165.5H64.2009C67.5146 165.5 70.2009 162.814 70.2009 159.5V154.48Z" fill="url(#paint1_linear_1_14441)" stroke="url(#paint2_linear_1_14441)"/>
<path d="M22.8469 161.941V158.382H40.9372V161.941H22.8469Z" fill="white"/>
<path d="M46.7899 161.941V158.382H63.8161V161.941H46.7899Z" fill="white"/>
<path d="M22.8469 161.941V158.382H40.9372V161.941H22.8469Z" stroke="white"/>
<path d="M46.7899 161.941V158.382H63.8161V161.941H46.7899Z" stroke="white"/>
<path d="M50.414 85.9036C55.5111 84.8781 62.1017 81.1977 62.1017 71.6807C62.1017 63.0201 55.7857 57.2529 51.2441 54.603C50.2364 54.015 49.0566 54.7883 49.0566 55.9583V58.951C49.0566 61.3108 48.0681 65.6183 45.3214 67.41C43.919 68.3247 42.4045 66.9556 42.234 65.2857L42.0941 63.9144C41.9314 62.3203 40.3138 61.3525 39.0445 62.3245C36.764 64.0706 34.3809 67.1281 34.3809 71.6807C34.3809 83.3193 43.0052 86.229 47.3172 86.229C47.568 86.229 47.8317 86.2215 48.1061 86.2056C45.9768 86.023 42.5341 84.6969 42.5341 80.4091C42.5341 77.0551 44.972 74.786 46.8243 73.683C47.3224 73.3863 47.9055 73.7716 47.9055 74.3529V75.3173C47.9055 76.0552 48.1899 77.2089 48.8668 77.9986C49.6329 78.8923 50.7572 77.9561 50.8479 76.7808C50.8766 76.4101 51.248 76.1737 51.568 76.3615C52.6137 76.9749 53.9485 78.2852 53.9485 80.4091C53.9485 83.7611 52.1075 85.303 50.414 85.9036Z" fill="white"/>
<path d="M1.0134 39.5144H86.7424C81.9797 33.3542 78.8757 30.2692 68.5747 27.1941V11.2803C73.8429 10.3276 73.7337 3.62857 69.608 1.02731C68.9595 0.618474 68.1807 0.5 67.4142 0.5H20.8006C20.1047 0.5 19.402 0.599253 18.7855 0.921961C14.1569 3.34494 14.9487 9.35129 19.7489 11.2803V27.1941C10.0356 30.1789 5.81902 32.7898 1.0134 39.5144Z" fill="url(#paint3_linear_1_14441)" stroke="url(#paint4_linear_1_14441)"/>
<path d="M38.9876 17.4405H49.8398C50.1362 17.4405 50.4174 17.572 50.6074 17.7995L50.8452 18.0844C51.7749 19.1977 51.7749 20.8167 50.8452 21.93L50.6074 22.2149C50.4174 22.4424 50.1362 22.5739 49.8398 22.5739H46.5569V26.1674H61.5595V13.847H27.2679V26.1674H41.7347V22.5739H38.9876C38.6912 22.5739 38.41 22.4424 38.22 22.2149L37.9821 21.93C37.0525 20.8167 37.0525 19.1977 37.9821 18.0844L38.22 17.7995C38.41 17.572 38.6912 17.4405 38.9876 17.4405Z" fill="white" stroke="white"/>
<path d="M50.414 85.9036C55.5111 84.8781 62.1017 81.1977 62.1017 71.6807C62.1017 63.0201 55.7857 57.2529 51.2441 54.603C50.2364 54.015 49.0566 54.7883 49.0566 55.9583V58.951C49.0566 61.3108 48.0681 65.6183 45.3214 67.41C43.919 68.3247 42.4045 66.9556 42.234 65.2857L42.0941 63.9144C41.9314 62.3203 40.3138 61.3525 39.0445 62.3245C36.764 64.0706 34.3809 67.1281 34.3809 71.6807C34.3809 83.3193 43.0052 86.229 47.3172 86.229C47.568 86.229 47.8317 86.2215 48.1061 86.2056C45.9768 86.023 42.5341 84.6969 42.5341 80.4091C42.5341 77.0551 44.972 74.786 46.8243 73.683C47.3224 73.3863 47.9055 73.7716 47.9055 74.3529V75.3173C47.9055 76.0552 48.1899 77.2089 48.8668 77.9986C49.6329 78.8923 50.7572 77.9561 50.8479 76.7808C50.8766 76.4101 51.248 76.1737 51.568 76.3615C52.6137 76.9749 53.9485 78.2852 53.9485 80.4091C53.9485 83.7611 52.1075 85.303 50.414 85.9036Z" fill="white"/>
<defs>
<linearGradient id="paint0_linear_1_14441" x1="52.3481" y1="43.6212" x2="52.3481" y2="97.0093" gradientUnits="userSpaceOnUse">
<stop stop-color="#018888"/>
</linearGradient>
<linearGradient id="paint1_linear_1_14441" x1="43.5975" y1="100.238" x2="43.5975" y2="165.5" gradientUnits="userSpaceOnUse">
<stop stop-color="#01C8B7"/>
</linearGradient>
<linearGradient id="paint2_linear_1_14441" x1="43.5975" y1="100.238" x2="43.5975" y2="165.5" gradientUnits="userSpaceOnUse">
<stop stop-color="#01C8B7"/>
</linearGradient>
<linearGradient id="paint3_linear_1_14441" x1="43.8779" y1="0.5" x2="43.8779" y2="39.5144" gradientUnits="userSpaceOnUse">
<stop stop-color="#01C8B7"/>
</linearGradient>
<linearGradient id="paint4_linear_1_14441" x1="43.8779" y1="0.5" x2="43.8779" y2="39.5144" gradientUnits="userSpaceOnUse">
<stop stop-color="#01C8B7"/>
</linearGradient>
</defs>
</svg>
