<svg width="1200" height="675" viewBox="0 0 1200 675" fill="none" xmlns="http://www.w3.org/2000/svg">
<rect width="1200" height="675" fill="#D9D9D9"/>
<rect width="600" height="387" fill="#F6F6F6"/>
<path d="M76.5553 261.144L40.2493 237.165L40.1269 232.019L40 226.869L41.4391 227.745C42.2265 228.227 46.7407 230.898 51.4736 233.684C68.463 243.7 86.7516 255.262 102.945 266.237C108.076 269.715 112.538 272.658 112.857 272.781C113.176 272.908 116.754 270.687 120.805 267.849C138.844 255.218 155.484 244.628 175.85 232.812L185.911 226.974L186.033 231.862C186.125 235.414 186.007 236.889 185.596 237.266C184.822 237.984 113.841 284.846 113.299 285C113.058 285.07 96.5237 274.335 76.5553 261.144ZM105.473 262.239L102.997 258.083L105.486 254.123L107.98 250.169H113.141H118.307L120.949 254.106L123.596 258.043L121.05 262.099L118.5 266.154L113.229 266.277L107.953 266.399L105.473 262.239ZM115.228 261.796C116.698 261.034 117.664 258.941 117.266 257.364C116.479 254.22 112.997 253.129 110.491 255.244C108.618 256.821 108.588 259.318 110.421 261.153C111.851 262.58 113.329 262.777 115.228 261.796ZM224.29 221.591L224.404 193.014L238.992 192.984L253.58 192.949L257.263 196.006L260.946 199.063L260.828 207.853L260.71 216.643L257.989 218.815C254.879 221.289 254.848 221.114 258.829 224.18L261.366 226.133V235.059V243.989L257.862 247.077L254.363 250.169H239.272H224.181L224.29 221.591ZM246.857 239.526C247.561 238.681 247.605 227.552 246.909 226.711C246.476 226.19 245.488 226.076 242.163 226.177L237.964 226.3L237.842 232.628C237.776 236.11 237.82 239.215 237.938 239.526C238.244 240.327 246.196 240.327 246.857 239.526ZM246.914 215.162C247.635 213.818 247.5 204.401 246.756 203.78C246.362 203.451 244.696 203.315 242.054 203.399L237.964 203.526L237.842 209.766L237.723 216.007H242.093C245.964 216.007 246.516 215.911 246.914 215.162ZM275.171 247.247L271.864 244.322V218.548V192.774L278.535 192.892L285.206 193.014L285.319 215.968C285.398 232.028 285.577 239.097 285.919 239.509C286.562 240.284 294.199 240.332 294.96 239.57C295.354 239.176 295.485 233.316 295.485 215.889V192.73L302.156 192.874L308.826 193.014L308.918 218.635L309.01 244.256L305.533 247.212L302.055 250.169H290.267H278.478L275.171 247.247ZM321.398 221.591L321.512 193.014H328.073H334.634L334.748 221.591L334.857 250.169H328.073H321.288L321.398 221.591ZM347.206 221.591L347.319 193.014L353.929 192.936L360.543 192.852L360.836 199.724C360.998 203.499 361.116 213.883 361.094 222.796C361.072 231.708 361.063 239.246 361.076 239.548C361.094 239.968 363.106 240.095 369.628 240.095H378.158V245.132V250.169H362.625H347.096L347.206 221.591ZM388.323 221.591L388.437 193.014L403.169 192.901L417.902 192.782L421.651 195.909L425.399 199.041V221.504V243.967L422.009 247.068L418.619 250.164L403.414 250.169H388.214L388.323 221.591ZM410.995 239.64C411.809 239.206 411.839 238.545 411.839 221.771C411.839 208.812 411.704 204.222 411.314 203.832C410.977 203.495 409.254 203.307 406.503 203.307H402.216L402.203 205.387C402.168 210.051 402.15 239.04 402.181 239.548C402.225 240.236 409.735 240.319 410.995 239.64ZM436.772 221.469V192.769L452.847 192.892L468.923 193.014L469.045 198.16L469.168 203.307H459.75H450.332V209.657V216.007H458.425H466.517V221.035V226.059L458.534 226.181L450.551 226.3V233.088V239.876L459.846 239.995L469.141 240.113V245.141V250.169H452.957H436.772V221.469ZM479.307 221.591L479.421 193.014L493.672 192.914C509.87 192.8 507.827 192.375 513.019 196.956L515.495 199.146L515.504 210.717L515.508 222.288L512.678 225.222L509.852 228.157L510.653 230.951C511.095 232.488 512.481 237.095 513.737 241.19C514.992 245.285 516.112 248.982 516.23 249.402C516.427 250.107 515.902 250.169 509.524 250.169H502.604L501.183 244.803C497.731 231.765 497.018 229.348 496.546 229.046C495.61 228.446 493.305 228.678 493.029 229.4C492.88 229.781 492.762 234.612 492.762 240.13V250.169H485.978H479.198L479.307 221.591ZM501.423 218.548C502.232 217.737 502.154 204.458 501.336 203.78C500.942 203.455 499.328 203.315 496.852 203.399L492.981 203.526L492.858 210.734C492.793 214.702 492.837 218.197 492.955 218.508C493.248 219.266 500.671 219.301 501.423 218.548ZM530.38 249.236C529.777 248.741 528.25 247.348 526.977 246.139L524.668 243.945L524.79 237.967L524.913 231.993H531.474H538.035L538.167 235.475C538.237 237.393 538.508 239.215 538.766 239.526C539.418 240.319 546.29 240.31 547.081 239.517C547.514 239.088 547.602 237.862 547.44 234.66L547.221 230.377L537.165 225.196C530.87 221.951 526.654 219.502 525.901 218.657L524.694 217.308V208.177V199.041L528.303 195.905L531.911 192.769L542.786 192.866C555.003 192.979 553.476 192.59 558.485 196.868L561 199.015V204.664V210.314L556.298 210.393C552.024 210.463 548.735 210.445 547.707 210.349C547.488 210.331 547.44 209.123 547.593 207.651C548.017 203.582 547.733 203.307 543.136 203.307C540.739 203.307 539.107 203.504 538.779 203.832C538.451 204.161 538.254 205.79 538.254 208.181V212.004L543.394 214.829C546.22 216.384 550.699 218.745 553.345 220.08C555.992 221.416 558.795 223.102 559.578 223.829L561 225.156V234.708V244.26L557.697 247.212L554.391 250.169L542.934 250.155C532.021 250.142 531.422 250.098 530.38 249.236ZM102.582 243.998C97.1667 242.329 90.8197 240.367 88.4751 239.64L84.2102 238.317V235.891C84.2102 233.679 84.2846 233.491 85.0676 233.741C85.54 233.889 88.4445 234.7 91.5195 235.536C94.599 236.377 97.5079 237.174 97.989 237.314C98.5795 237.485 98.7195 237.419 98.4264 237.122C98.1859 236.876 95.6269 236.057 92.7399 235.3C86.1699 233.578 85.8593 233.482 86.0561 233.281C86.2399 233.101 98.4352 230.46 99.0957 230.46C99.3319 230.46 99.52 231.152 99.52 231.993C99.52 232.834 99.7168 233.526 99.9574 233.526C100.246 233.526 100.369 221.136 100.312 197.066C100.268 177.011 100.159 161.788 100.071 163.233C99.9793 164.678 99.7693 166.001 99.5987 166.172C99.3669 166.408 89.5555 163.991 86.2092 162.878C85.8724 162.764 91.4714 160.448 97.5035 158.205C98.199 157.947 98.667 157.631 98.5402 157.509C98.4177 157.386 96.2743 158.1 93.7766 159.099C91.2833 160.097 88.3045 161.284 87.1628 161.74L85.0851 162.563V160.667V158.77L98.3171 153.261C105.596 150.234 111.842 147.69 112.205 147.611C112.726 147.497 112.888 148.062 112.988 150.392L113.119 153.322L110.692 154.088C109.358 154.509 108.268 155.004 108.268 155.188C108.268 155.372 109.384 155.135 110.753 154.666C113.22 153.817 113.246 153.817 115.565 154.684C116.842 155.166 117.892 155.402 117.892 155.209C117.892 155.021 116.899 154.509 115.687 154.071L113.478 153.278L113.609 150.37C113.679 148.745 113.929 147.501 114.174 147.541C114.414 147.585 120.761 150.142 128.28 153.221L141.95 158.823V160.688V162.554L138.451 161.249C136.526 160.535 133.35 159.353 131.391 158.621C129.431 157.894 127.734 157.395 127.611 157.518C127.493 157.636 127.865 157.907 128.438 158.118C129.015 158.328 132.125 159.453 135.349 160.623C138.577 161.792 141.036 162.804 140.817 162.878C140.196 163.08 126.181 166.518 125.98 166.518C125.883 166.518 125.735 165.186 125.652 163.561C125.568 161.937 125.494 177.059 125.485 197.175C125.481 217.286 125.551 233.005 125.647 232.103C125.77 230.911 126.023 230.465 126.557 230.473C126.964 230.482 130.349 231.227 134.076 232.129L140.856 233.771L134.186 235.265C130.516 236.088 127.515 236.933 127.515 237.144C127.515 237.354 127.861 237.424 128.28 237.297C130.013 236.78 140.747 234.402 141.346 234.402C141.854 234.402 141.967 234.901 141.862 236.684L141.731 238.97L139.107 239.78C129.203 242.846 114.112 246.971 113.824 246.691C113.631 246.507 113.531 245.097 113.605 243.555L113.736 240.757L116.908 239.89C118.653 239.412 120.079 238.847 120.079 238.637C120.079 238.422 119.768 238.37 119.392 238.514C119.012 238.659 117.472 239.106 115.967 239.509C113.421 240.187 113.028 240.187 110.377 239.522C108.811 239.127 107.201 238.681 106.803 238.527C106.405 238.374 106.081 238.427 106.081 238.637C106.081 238.852 107.608 239.417 109.471 239.89L112.861 240.752L112.988 243.928C113.063 245.675 112.962 247.09 112.77 247.072C112.581 247.055 107.997 245.671 102.582 243.998ZM57.0901 227.881L40.2493 221.841V197.6V173.354L57.0901 167.967C69.7316 163.925 74.1495 162.681 74.8057 162.975C75.2868 163.194 77.697 164.867 80.1641 166.697L84.6476 170.017V181.308V192.594L80.724 194.994C78.5675 196.312 76.7959 197.512 76.7872 197.652C76.7784 197.797 78.5456 198.721 80.7108 199.706L84.6476 201.502V213.27V225.038L79.6217 229.387C76.8572 231.783 74.447 233.78 74.2632 233.833C74.0795 233.881 66.3547 231.205 57.0901 227.881ZM69.3379 210.997C69.3379 207.038 69.1585 203.688 68.9442 203.552C68.4674 203.258 54.3868 201.559 52.3878 201.555H50.9662V207.66C50.9662 211.457 51.1411 213.875 51.4255 214.05C52.0772 214.453 67.1639 218.118 68.3537 218.162C69.3379 218.197 69.3379 218.184 69.3379 210.997ZM61.0269 190.387C65.4011 189.782 69.0579 189.292 69.1585 189.292C69.2548 189.292 69.3379 186.335 69.3379 182.722C69.3379 176.941 69.2504 176.153 68.6249 176.153C67.7369 176.153 53.2932 179.937 51.9504 180.524C51.0099 180.935 50.9662 181.176 50.9662 186.217V191.482H52.0204C52.6021 191.482 56.6526 190.991 61.0269 190.387ZM145.13 229.453L139.78 224.986L139.772 213.305L139.763 201.629L141.622 200.942C142.645 200.561 145.056 199.676 146.98 198.971L150.48 197.687L145.126 195.13L139.776 192.576L139.767 181.334L139.763 170.096L144.898 166.5C147.719 164.525 150.23 162.834 150.475 162.747C150.716 162.659 158.791 165.02 168.414 167.989L185.911 173.385V197.609V221.832L168.414 227.885C158.791 231.209 150.816 233.929 150.698 233.929C150.58 233.924 148.074 231.91 145.13 229.453ZM164.132 216.253C168.515 215.197 172.303 214.203 172.552 214.045C172.832 213.875 173.007 211.418 173.007 207.66V201.555H171.585C169.586 201.559 155.506 203.258 155.029 203.552C154.814 203.688 154.635 207.038 154.635 210.997C154.635 217.567 154.701 218.197 155.401 218.189C155.821 218.184 159.749 217.313 164.132 216.253ZM173.007 186.007C173.007 182.994 172.902 180.532 172.771 180.532C172.644 180.532 168.829 179.547 164.302 178.343C159.77 177.138 155.746 176.153 155.353 176.153C154.718 176.153 154.635 176.932 154.635 182.696V189.239L156.494 189.498C157.518 189.642 160.812 190.124 163.821 190.571C166.83 191.017 170.124 191.407 171.148 191.433L173.007 191.482V186.007ZM224.5 185.083C224.325 184.908 224.185 173.468 224.185 159.655V134.546H235.838H247.491L250.273 136.99L253.055 139.438V147.392V155.35L250.815 157.281L248.58 159.208L251.034 161.367L253.492 163.526V171.721V179.915L251.852 181.461C250.951 182.311 249.586 183.506 248.821 184.124L247.43 185.245L236.122 185.319C229.902 185.363 224.671 185.254 224.5 185.083ZM242.469 175.627C242.819 175.277 242.994 173.389 242.994 170.021C242.994 166.653 242.819 164.766 242.469 164.415C242.15 164.096 240.602 163.89 238.533 163.89H235.121V169.728C235.121 172.943 235.252 175.702 235.414 175.859C235.93 176.381 241.914 176.184 242.469 175.627ZM242.338 149.218V143.963L238.729 143.836L235.121 143.709V149.218V154.728L238.729 154.601L242.338 154.474V149.218ZM260.303 185.017C260.168 184.877 260.054 173.468 260.054 159.655V134.546H265.522H270.989V155.35V176.153H277.345H283.705L283.578 180.642L283.456 185.131L272.004 185.197C265.705 185.236 260.439 185.153 260.303 185.017ZM291.811 182.613L288.836 179.876L288.771 157.32L288.705 134.765L294.063 134.643L299.422 134.52V154.881C299.422 174.567 299.448 175.259 300.266 175.697C301.434 176.324 306.127 176.271 306.77 175.627C307.164 175.233 307.295 170.026 307.295 154.899C307.295 143.783 307.378 134.612 307.475 134.511C307.575 134.411 309.937 134.389 312.724 134.463L317.793 134.599V157.312V180.02L315.16 182.407C312.02 185.254 311.573 185.35 301.635 185.35H294.789L291.811 182.613ZM325.072 185.048C324.919 184.89 324.792 173.468 324.792 159.655V134.546H337.709H350.631L350.504 139.036L350.381 143.525L343.055 143.643L335.728 143.766V149.218V154.671L341.935 154.789L348.142 154.912L348.168 159.291L348.194 163.671L341.948 163.794L335.702 163.916L335.824 169.925L335.947 175.934L343.286 176.052L350.631 176.175L350.504 180.651L350.381 185.131L337.867 185.227C330.982 185.28 325.225 185.201 325.072 185.048ZM372.362 182.674L369.409 180.02V159.856V139.692L372.143 137.139L374.877 134.586L383.56 134.564L392.238 134.546L395.042 137.008L397.842 139.469V145.78V152.091L392.702 151.969L387.562 151.846L387.344 147.904L387.125 143.963L383.884 143.831C381.583 143.739 380.537 143.866 380.279 144.269C379.741 145.123 379.816 174.283 380.362 175.308C380.734 176.004 381.29 176.153 383.555 176.153C385.1 176.153 386.521 175.925 386.819 175.627C387.151 175.294 387.344 173.613 387.344 171.029V166.956H392.593H397.842V173.49V180.024L394.893 182.687L391.95 185.35L383.63 185.341L375.314 185.333L372.362 182.674ZM408.283 184.194C407.474 183.537 406.07 182.311 405.168 181.461L403.528 179.915L403.537 159.97C403.537 148.999 403.686 139.819 403.865 139.574C404.04 139.325 405.3 138.076 406.669 136.802L409.149 134.481L417.981 134.529L426.808 134.577L429.603 137.078L432.398 139.583V159.747V179.911L430.539 181.684C426.58 185.455 427.193 185.276 417.998 185.333L409.757 185.381L408.283 184.194ZM421.213 175.465C421.812 174.865 421.9 172.846 421.9 159.953C421.9 151.798 421.782 144.817 421.633 144.436C421.427 143.893 420.688 143.744 418.221 143.744C416.358 143.744 414.862 143.958 414.551 144.269C414.162 144.659 414.026 148.745 414.026 159.948C414.026 171.151 414.162 175.238 414.551 175.627C415.352 176.429 420.373 176.306 421.213 175.465ZM439.287 185.1C439.108 184.916 438.959 173.468 438.959 159.655V134.546H444.204H449.449L449.562 155.24L449.676 175.934L456.141 176.057L462.611 176.175L462.484 180.646L462.361 185.114L450.988 185.276C444.733 185.363 439.467 185.284 439.287 185.1ZM467.829 159.953V134.546H473.074H478.319L478.432 155.24L478.546 175.934L484.998 176.057L491.45 176.175V180.484V184.789L488.716 185.057C487.211 185.206 481.897 185.333 476.906 185.346L467.829 185.363V159.953ZM494.074 185.022C494.074 184.842 494.376 183.116 494.744 181.189C495.995 174.655 503.26 134.989 503.26 134.687C503.26 134.612 506.484 134.546 510.425 134.546H517.586L517.87 135.97C518.146 137.349 523.819 168.883 525.669 179.332C526.168 182.166 526.496 184.566 526.396 184.667C526.295 184.768 524.029 184.991 521.361 185.157C518.006 185.372 516.414 185.319 516.212 184.987C516.046 184.724 515.666 182.775 515.359 180.659L514.808 176.81L510.382 176.687L505.959 176.56L505.714 177.782C505.579 178.452 505.251 180.305 504.988 181.899L504.503 184.794L501.847 185.074C498.243 185.451 494.074 185.425 494.074 185.022ZM513.098 167.402C513.312 167.056 512.149 157.417 510.867 148.89C510.565 146.875 509.826 146.722 509.809 148.671C509.8 149.455 509.222 153.931 508.527 158.617C507.827 163.303 507.355 167.293 507.473 167.486C507.783 167.985 512.783 167.91 513.098 167.402ZM531.111 185.057C530.949 184.899 530.818 173.468 530.818 159.655V134.546H542.313H553.809L556.53 137.297L559.25 140.043V150.313V160.579L556.98 162.878L554.71 165.182L557.234 174.278C558.62 179.284 559.793 183.734 559.832 184.168C559.898 184.873 559.373 184.978 554.771 185.192L549.636 185.429L549.185 184.246C548.94 183.598 547.781 179.293 546.613 174.681L544.492 166.299H543.013H541.535L541.417 175.54L541.298 184.785L537.699 185.065C533.092 185.425 531.474 185.42 531.111 185.057ZM548.354 156.37C548.901 155.345 548.722 145.193 548.14 144.252C547.947 143.941 546.574 143.744 544.57 143.744H541.316V150.532V157.32H544.579C547.488 157.32 547.904 157.215 548.354 156.37ZM40.1356 151.776L40.2493 137.468L76.7084 120.234L113.168 103L149.539 120.247L185.911 137.494L186.025 151.758L186.143 166.027L181.869 164.569C179.52 163.763 177.254 162.966 176.834 162.795C176.134 162.51 176.069 161.586 176.069 152.336V142.189L144.798 128.043C127.598 120.264 113.242 113.962 112.892 114.037C112.546 114.115 98.1771 120.483 80.9646 128.183L49.6714 142.184L49.5533 152.42L49.4352 162.65L44.8423 164.359C42.314 165.296 40.1968 166.067 40.1356 166.071C40.07 166.075 40.07 159.642 40.1356 151.776ZM57.0901 155.188V150.865L85.1901 138.199L113.29 125.533L129.65 133.106C138.647 137.271 146.18 140.678 146.385 140.678C146.591 140.678 146.762 139.382 146.762 137.8C146.762 134.437 146.254 134.472 152.811 137.38L157.041 139.255L157.26 142.614L157.478 145.973L162.837 148.434L168.195 150.9V155.258C168.195 159.195 168.121 159.594 167.43 159.401C167.01 159.287 154.854 154.715 140.419 149.249C125.984 143.783 113.881 139.29 113.517 139.263C113.154 139.241 100.487 143.787 85.365 149.367C70.239 154.947 57.6937 159.51 57.4794 159.51C57.265 159.51 57.0901 157.566 57.0901 155.188Z" fill="#1B1B1B"/>
<rect x="600" width="600" height="387" fill="#272D32"/>
<path d="M676.555 261.144L640.249 237.165L640.127 232.019L640 226.869L641.439 227.745C642.226 228.227 646.741 230.898 651.474 233.684C668.463 243.7 686.752 255.262 702.945 266.237C708.076 269.715 712.538 272.658 712.857 272.781C713.176 272.908 716.754 270.687 720.805 267.849C738.844 255.218 755.484 244.628 775.85 232.812L785.911 226.974L786.033 231.862C786.125 235.414 786.007 236.889 785.596 237.266C784.822 237.984 713.841 284.846 713.299 285C713.058 285.07 696.524 274.335 676.555 261.144ZM705.473 262.239L702.997 258.082L705.486 254.123L707.98 250.169H713.141H718.307L720.949 254.106L723.596 258.043L721.05 262.099L718.5 266.154L713.229 266.277L707.953 266.399L705.473 262.239ZM715.228 261.796C716.698 261.034 717.664 258.941 717.266 257.364C716.479 254.22 712.997 253.129 710.491 255.244C708.618 256.821 708.588 259.318 710.421 261.153C711.851 262.58 713.329 262.777 715.228 261.796ZM824.29 221.591L824.404 193.014L838.992 192.984L853.58 192.949L857.263 196.006L860.946 199.063L860.828 207.853L860.71 216.642L857.989 218.815C854.879 221.289 854.848 221.114 858.829 224.18L861.366 226.133V235.059V243.989L857.862 247.076L854.363 250.169H839.272H824.181L824.29 221.591ZM846.857 239.526C847.561 238.681 847.605 227.552 846.909 226.711C846.476 226.19 845.488 226.076 842.163 226.177L837.964 226.3L837.842 232.628C837.776 236.11 837.82 239.215 837.938 239.526C838.244 240.327 846.196 240.327 846.857 239.526ZM846.914 215.162C847.635 213.818 847.5 204.401 846.756 203.78C846.362 203.451 844.696 203.315 842.054 203.398L837.964 203.526L837.842 209.766L837.723 216.007H842.093C845.964 216.007 846.516 215.911 846.914 215.162ZM875.171 247.247L871.864 244.322V218.548V192.774L878.535 192.892L885.206 193.014L885.319 215.968C885.398 232.028 885.577 239.097 885.919 239.508C886.562 240.284 894.199 240.332 894.96 239.57C895.354 239.176 895.485 233.316 895.485 215.889V192.73L902.156 192.874L908.826 193.014L908.918 218.635L909.01 244.256L905.533 247.212L902.055 250.169H890.267H878.478L875.171 247.247ZM921.398 221.591L921.512 193.014H928.073H934.634L934.748 221.591L934.857 250.169H928.073H921.288L921.398 221.591ZM947.206 221.591L947.319 193.014L953.929 192.936L960.543 192.852L960.836 199.724C960.998 203.499 961.116 213.883 961.094 222.796C961.072 231.708 961.063 239.246 961.076 239.548C961.094 239.968 963.106 240.095 969.628 240.095H978.158V245.132V250.169H962.625H947.096L947.206 221.591ZM988.323 221.591L988.437 193.014L1003.17 192.901L1017.9 192.782L1021.65 195.909L1025.4 199.041V221.504V243.967L1022.01 247.068L1018.62 250.164L1003.41 250.169H988.214L988.323 221.591ZM1010.99 239.64C1011.81 239.206 1011.84 238.545 1011.84 221.771C1011.84 208.812 1011.7 204.222 1011.31 203.832C1010.98 203.495 1009.25 203.307 1006.5 203.307H1002.22L1002.2 205.387C1002.17 210.051 1002.15 239.04 1002.18 239.548C1002.22 240.236 1009.74 240.319 1010.99 239.64ZM1036.77 221.469V192.769L1052.85 192.892L1068.92 193.014L1069.05 198.16L1069.17 203.307H1059.75H1050.33V209.657V216.007H1058.42H1066.52V221.035V226.059L1058.53 226.181L1050.55 226.3V233.088V239.876L1059.85 239.995L1069.14 240.113V245.141V250.169H1052.96H1036.77V221.469ZM1079.31 221.591L1079.42 193.014L1093.67 192.914C1109.87 192.8 1107.83 192.375 1113.02 196.956L1115.49 199.146L1115.5 210.717L1115.51 222.288L1112.68 225.222L1109.85 228.157L1110.65 230.951C1111.09 232.488 1112.48 237.095 1113.74 241.19C1114.99 245.285 1116.11 248.982 1116.23 249.402C1116.43 250.107 1115.9 250.169 1109.52 250.169H1102.6L1101.18 244.803C1097.73 231.765 1097.02 229.348 1096.55 229.046C1095.61 228.446 1093.3 228.678 1093.03 229.4C1092.88 229.781 1092.76 234.612 1092.76 240.13V250.169H1085.98H1079.2L1079.31 221.591ZM1101.42 218.548C1102.23 217.737 1102.15 204.458 1101.34 203.78C1100.94 203.455 1099.33 203.315 1096.85 203.398L1092.98 203.526L1092.86 210.734C1092.79 214.702 1092.84 218.197 1092.95 218.508C1093.25 219.266 1100.67 219.301 1101.42 218.548ZM1130.38 249.236C1129.78 248.741 1128.25 247.348 1126.98 246.139L1124.67 243.945L1124.79 237.967L1124.91 231.993H1131.47H1138.04L1138.17 235.475C1138.24 237.393 1138.51 239.215 1138.77 239.526C1139.42 240.319 1146.29 240.31 1147.08 239.517C1147.51 239.088 1147.6 237.862 1147.44 234.66L1147.22 230.377L1137.16 225.196C1130.87 221.951 1126.65 219.502 1125.9 218.657L1124.69 217.308V208.177V199.041L1128.3 195.905L1131.91 192.769L1142.79 192.866C1155 192.979 1153.48 192.59 1158.48 196.868L1161 199.014V204.664V210.314L1156.3 210.393C1152.02 210.463 1148.73 210.445 1147.71 210.349C1147.49 210.331 1147.44 209.123 1147.59 207.651C1148.02 203.582 1147.73 203.307 1143.14 203.307C1140.74 203.307 1139.11 203.504 1138.78 203.832C1138.45 204.161 1138.25 205.79 1138.25 208.181V212.004L1143.39 214.829C1146.22 216.384 1150.7 218.745 1153.35 220.08C1155.99 221.416 1158.8 223.102 1159.58 223.829L1161 225.156V234.708V244.26L1157.7 247.212L1154.39 250.169L1142.93 250.155C1132.02 250.142 1131.42 250.098 1130.38 249.236ZM702.582 243.998C697.167 242.329 690.82 240.367 688.475 239.64L684.21 238.317V235.891C684.21 233.679 684.285 233.491 685.068 233.741C685.54 233.889 688.444 234.7 691.52 235.536C694.599 236.377 697.508 237.174 697.989 237.314C698.58 237.485 698.72 237.419 698.426 237.122C698.186 236.876 695.627 236.057 692.74 235.3C686.17 233.578 685.859 233.482 686.056 233.281C686.24 233.101 698.435 230.46 699.096 230.46C699.332 230.46 699.52 231.152 699.52 231.993C699.52 232.834 699.717 233.526 699.957 233.526C700.246 233.526 700.369 221.136 700.312 197.066C700.268 177.011 700.159 161.788 700.071 163.233C699.979 164.678 699.769 166.001 699.599 166.172C699.367 166.408 689.556 163.991 686.209 162.878C685.872 162.764 691.471 160.448 697.503 158.205C698.199 157.947 698.667 157.631 698.54 157.509C698.418 157.386 696.274 158.1 693.777 159.099C691.283 160.097 688.304 161.284 687.163 161.74L685.085 162.563V160.667V158.77L698.317 153.261C705.596 150.234 711.842 147.69 712.205 147.611C712.726 147.497 712.888 148.062 712.988 150.392L713.119 153.322L710.692 154.088C709.358 154.509 708.268 155.004 708.268 155.188C708.268 155.372 709.384 155.135 710.753 154.666C713.22 153.817 713.246 153.817 715.565 154.684C716.842 155.166 717.892 155.402 717.892 155.209C717.892 155.021 716.899 154.509 715.687 154.071L713.478 153.278L713.609 150.37C713.679 148.745 713.929 147.501 714.174 147.541C714.414 147.585 720.761 150.142 728.28 153.221L741.95 158.823V160.688V162.554L738.451 161.249C736.526 160.535 733.35 159.353 731.391 158.621C729.431 157.894 727.734 157.395 727.611 157.518C727.493 157.636 727.865 157.907 728.438 158.118C729.015 158.328 732.125 159.453 735.349 160.623C738.577 161.792 741.036 162.804 740.817 162.878C740.196 163.08 726.181 166.518 725.98 166.518C725.883 166.518 725.735 165.186 725.652 163.561C725.568 161.937 725.494 177.059 725.485 197.175C725.481 217.286 725.551 233.005 725.647 232.103C725.77 230.911 726.023 230.465 726.557 230.473C726.964 230.482 730.349 231.227 734.076 232.129L740.856 233.771L734.186 235.265C730.516 236.088 727.515 236.933 727.515 237.144C727.515 237.354 727.861 237.424 728.28 237.297C730.013 236.78 740.747 234.402 741.346 234.402C741.854 234.402 741.967 234.901 741.862 236.684L741.731 238.97L739.107 239.78C729.203 242.846 714.112 246.971 713.824 246.691C713.631 246.507 713.531 245.097 713.605 243.555L713.736 240.757L716.908 239.89C718.653 239.412 720.079 238.847 720.079 238.637C720.079 238.422 719.768 238.37 719.392 238.514C719.012 238.659 717.472 239.106 715.967 239.508C713.421 240.187 713.028 240.187 710.377 239.522C708.811 239.127 707.201 238.681 706.803 238.527C706.405 238.374 706.081 238.427 706.081 238.637C706.081 238.852 707.608 239.417 709.471 239.89L712.861 240.752L712.988 243.928C713.063 245.675 712.962 247.09 712.77 247.072C712.581 247.055 707.997 245.671 702.582 243.998ZM657.09 227.881L640.249 221.841V197.6V173.354L657.09 167.967C669.732 163.925 674.15 162.681 674.806 162.975C675.287 163.194 677.697 164.867 680.164 166.697L684.648 170.017V181.308V192.594L680.724 194.994C678.567 196.312 676.796 197.512 676.787 197.652C676.778 197.797 678.546 198.721 680.711 199.706L684.648 201.502V213.27V225.038L679.622 229.387C676.857 231.783 674.447 233.78 674.263 233.833C674.08 233.881 666.355 231.205 657.09 227.881ZM669.338 210.997C669.338 207.038 669.159 203.688 668.944 203.552C668.467 203.258 654.387 201.559 652.388 201.555H650.966V207.66C650.966 211.457 651.141 213.875 651.425 214.05C652.077 214.453 667.164 218.118 668.354 218.162C669.338 218.197 669.338 218.184 669.338 210.997ZM661.027 190.387C665.401 189.782 669.058 189.292 669.159 189.292C669.255 189.292 669.338 186.335 669.338 182.722C669.338 176.941 669.25 176.153 668.625 176.153C667.737 176.153 653.293 179.937 651.95 180.524C651.01 180.935 650.966 181.176 650.966 186.217V191.482H652.02C652.602 191.482 656.653 190.991 661.027 190.387ZM745.13 229.453L739.78 224.986L739.772 213.305L739.763 201.629L741.622 200.942C742.645 200.561 745.056 199.676 746.98 198.971L750.48 197.687L745.126 195.13L739.776 192.576L739.767 181.334L739.763 170.096L744.898 166.5C747.719 164.525 750.23 162.834 750.475 162.747C750.716 162.659 758.791 165.02 768.414 167.989L785.911 173.385V197.609V221.832L768.414 227.885C758.791 231.209 750.816 233.929 750.698 233.929C750.58 233.924 748.074 231.91 745.13 229.453ZM764.132 216.253C768.515 215.197 772.303 214.203 772.552 214.045C772.832 213.875 773.007 211.418 773.007 207.66V201.555H771.585C769.586 201.559 755.506 203.258 755.029 203.552C754.814 203.688 754.635 207.038 754.635 210.997C754.635 217.567 754.701 218.197 755.401 218.188C755.821 218.184 759.749 217.313 764.132 216.253ZM773.007 186.007C773.007 182.994 772.902 180.532 772.771 180.532C772.644 180.532 768.829 179.547 764.302 178.343C759.77 177.138 755.746 176.153 755.353 176.153C754.718 176.153 754.635 176.932 754.635 182.696V189.239L756.494 189.498C757.518 189.642 760.812 190.124 763.821 190.571C766.83 191.017 770.124 191.407 771.148 191.433L773.007 191.482V186.007ZM824.5 185.083C824.325 184.908 824.185 173.468 824.185 159.655V134.546H835.838H847.491L850.273 136.99L853.055 139.438V147.392V155.35L850.815 157.281L848.58 159.208L851.034 161.367L853.492 163.526V171.721V179.915L851.852 181.461C850.951 182.311 849.586 183.506 848.821 184.124L847.43 185.245L836.122 185.319C829.902 185.363 824.671 185.254 824.5 185.083ZM842.469 175.627C842.819 175.277 842.994 173.389 842.994 170.021C842.994 166.653 842.819 164.766 842.469 164.415C842.15 164.096 840.602 163.89 838.533 163.89H835.121V169.728C835.121 172.943 835.252 175.702 835.414 175.859C835.93 176.381 841.914 176.184 842.469 175.627ZM842.338 149.218V143.963L838.729 143.836L835.121 143.709V149.218V154.728L838.729 154.601L842.338 154.474V149.218ZM860.303 185.017C860.168 184.877 860.054 173.468 860.054 159.655V134.546H865.522H870.989V155.35V176.153H877.345H883.705L883.578 180.642L883.456 185.131L872.004 185.197C865.705 185.236 860.439 185.153 860.303 185.017ZM891.811 182.613L888.836 179.876L888.771 157.32L888.705 134.765L894.063 134.643L899.422 134.52V154.881C899.422 174.567 899.448 175.259 900.266 175.697C901.434 176.324 906.127 176.271 906.77 175.627C907.164 175.233 907.295 170.026 907.295 154.899C907.295 143.783 907.378 134.612 907.475 134.511C907.575 134.411 909.937 134.389 912.724 134.463L917.793 134.599V157.312V180.02L915.16 182.407C912.02 185.254 911.573 185.35 901.635 185.35H894.789L891.811 182.613ZM925.072 185.048C924.919 184.89 924.792 173.468 924.792 159.655V134.546H937.709H950.631L950.504 139.036L950.381 143.525L943.055 143.643L935.728 143.766V149.218V154.671L941.935 154.789L948.142 154.912L948.168 159.291L948.194 163.671L941.948 163.794L935.702 163.916L935.824 169.925L935.947 175.934L943.286 176.052L950.631 176.175L950.504 180.651L950.381 185.131L937.867 185.227C930.982 185.28 925.225 185.201 925.072 185.048ZM972.362 182.674L969.409 180.02V159.856V139.692L972.143 137.139L974.877 134.586L983.56 134.564L992.238 134.546L995.042 137.008L997.842 139.469V145.78V152.091L992.702 151.969L987.562 151.846L987.344 147.904L987.125 143.963L983.884 143.831C981.583 143.739 980.537 143.866 980.279 144.269C979.741 145.123 979.816 174.283 980.362 175.308C980.734 176.004 981.29 176.153 983.555 176.153C985.1 176.153 986.521 175.925 986.819 175.627C987.151 175.294 987.344 173.613 987.344 171.029V166.956H992.593H997.842V173.49V180.024L994.893 182.687L991.95 185.35L983.63 185.341L975.314 185.333L972.362 182.674ZM1008.28 184.194C1007.47 183.537 1006.07 182.311 1005.17 181.461L1003.53 179.915L1003.54 159.97C1003.54 148.999 1003.69 139.819 1003.86 139.574C1004.04 139.325 1005.3 138.076 1006.67 136.802L1009.15 134.481L1017.98 134.529L1026.81 134.577L1029.6 137.078L1032.4 139.583V159.747V179.911L1030.54 181.684C1026.58 185.455 1027.19 185.276 1018 185.333L1009.76 185.381L1008.28 184.194ZM1021.21 175.465C1021.81 174.865 1021.9 172.846 1021.9 159.953C1021.9 151.798 1021.78 144.817 1021.63 144.436C1021.43 143.893 1020.69 143.744 1018.22 143.744C1016.36 143.744 1014.86 143.958 1014.55 144.269C1014.16 144.659 1014.03 148.745 1014.03 159.948C1014.03 171.151 1014.16 175.238 1014.55 175.627C1015.35 176.429 1020.37 176.306 1021.21 175.465ZM1039.29 185.1C1039.11 184.916 1038.96 173.468 1038.96 159.655V134.546H1044.2H1049.45L1049.56 155.24L1049.68 175.934L1056.14 176.057L1062.61 176.175L1062.48 180.646L1062.36 185.114L1050.99 185.276C1044.73 185.363 1039.47 185.284 1039.29 185.1ZM1067.83 159.953V134.546H1073.07H1078.32L1078.43 155.24L1078.55 175.934L1085 176.057L1091.45 176.175V180.484V184.789L1088.72 185.057C1087.21 185.206 1081.9 185.333 1076.91 185.346L1067.83 185.363V159.953ZM1094.07 185.022C1094.07 184.842 1094.38 183.116 1094.74 181.189C1095.99 174.655 1103.26 134.989 1103.26 134.687C1103.26 134.612 1106.48 134.546 1110.43 134.546H1117.59L1117.87 135.97C1118.15 137.349 1123.82 168.883 1125.67 179.332C1126.17 182.166 1126.5 184.566 1126.4 184.667C1126.29 184.768 1124.03 184.991 1121.36 185.157C1118.01 185.372 1116.41 185.319 1116.21 184.987C1116.05 184.724 1115.67 182.775 1115.36 180.659L1114.81 176.81L1110.38 176.687L1105.96 176.56L1105.71 177.782C1105.58 178.452 1105.25 180.305 1104.99 181.899L1104.5 184.794L1101.85 185.074C1098.24 185.451 1094.07 185.425 1094.07 185.022ZM1113.1 167.402C1113.31 167.056 1112.15 157.417 1110.87 148.89C1110.57 146.875 1109.83 146.722 1109.81 148.671C1109.8 149.455 1109.22 153.931 1108.53 158.617C1107.83 163.303 1107.35 167.293 1107.47 167.486C1107.78 167.985 1112.78 167.91 1113.1 167.402ZM1131.11 185.057C1130.95 184.899 1130.82 173.468 1130.82 159.655V134.546H1142.31H1153.81L1156.53 137.297L1159.25 140.043V150.313V160.579L1156.98 162.878L1154.71 165.182L1157.23 174.278C1158.62 179.284 1159.79 183.734 1159.83 184.168C1159.9 184.873 1159.37 184.978 1154.77 185.192L1149.64 185.429L1149.19 184.246C1148.94 183.598 1147.78 179.293 1146.61 174.681L1144.49 166.299H1143.01H1141.53L1141.42 175.54L1141.3 184.785L1137.7 185.065C1133.09 185.425 1131.47 185.42 1131.11 185.057ZM1148.35 156.37C1148.9 155.345 1148.72 145.193 1148.14 144.252C1147.95 143.941 1146.57 143.744 1144.57 143.744H1141.32V150.532V157.32H1144.58C1147.49 157.32 1147.9 157.215 1148.35 156.37ZM640.136 151.776L640.249 137.468L676.708 120.234L713.168 103L749.539 120.247L785.911 137.494L786.025 151.758L786.143 166.027L781.869 164.569C779.52 163.763 777.254 162.966 776.834 162.795C776.134 162.51 776.069 161.586 776.069 152.336V142.189L744.798 128.043C727.598 120.264 713.242 113.962 712.892 114.037C712.546 114.115 698.177 120.483 680.965 128.183L649.671 142.184L649.553 152.42L649.435 162.65L644.842 164.359C642.314 165.296 640.197 166.067 640.136 166.071C640.07 166.075 640.07 159.642 640.136 151.776ZM657.09 155.188V150.865L685.19 138.199L713.29 125.533L729.65 133.106C738.647 137.271 746.18 140.678 746.385 140.678C746.591 140.678 746.762 139.382 746.762 137.8C746.762 134.437 746.254 134.472 752.811 137.38L757.041 139.255L757.26 142.614L757.478 145.973L762.837 148.434L768.195 150.9V155.258C768.195 159.195 768.121 159.593 767.43 159.401C767.01 159.287 754.854 154.715 740.419 149.249C725.984 143.783 713.881 139.29 713.517 139.263C713.154 139.241 700.487 143.787 685.365 149.367C670.239 154.947 657.694 159.51 657.479 159.51C657.265 159.51 657.09 157.566 657.09 155.188Z" fill="#F6F6F6"/>
<rect width="300" height="288" transform="translate(0 387)" fill="#272D32"/>
<path d="M113.555 598.144L77.2493 574.165L77.1269 569.019L77 563.869L78.4391 564.745C79.2265 565.227 83.7407 567.898 88.4736 570.684C105.463 580.7 123.752 592.262 139.945 603.237C145.076 606.715 149.538 609.658 149.857 609.781C150.176 609.908 153.754 607.687 157.805 604.849C175.844 592.218 192.484 581.628 212.85 569.812L222.911 563.974L223.033 568.862C223.125 572.414 223.007 573.889 222.596 574.266C221.822 574.984 150.841 621.846 150.299 622C150.058 622.07 133.524 611.335 113.555 598.144ZM142.473 599.239L139.997 595.083L142.486 591.123L144.98 587.169H150.141H155.307L157.949 591.106L160.596 595.043L158.05 599.099L155.5 603.154L150.229 603.277L144.953 603.399L142.473 599.239ZM152.228 598.796C153.698 598.034 154.664 595.941 154.266 594.364C153.479 591.22 149.997 590.129 147.491 592.244C145.618 593.821 145.588 596.318 147.421 598.153C148.851 599.58 150.329 599.777 152.228 598.796ZM139.582 580.998C134.167 579.329 127.82 577.367 125.475 576.64L121.21 575.317V572.891C121.21 570.679 121.285 570.491 122.068 570.741C122.54 570.889 125.444 571.7 128.52 572.536C131.599 573.377 134.508 574.174 134.989 574.314C135.58 574.485 135.72 574.419 135.426 574.122C135.186 573.876 132.627 573.057 129.74 572.3C123.17 570.578 122.859 570.482 123.056 570.281C123.24 570.101 135.435 567.46 136.096 567.46C136.332 567.46 136.52 568.152 136.52 568.993C136.52 569.834 136.717 570.526 136.957 570.526C137.246 570.526 137.369 558.136 137.312 534.066C137.268 514.011 137.159 498.788 137.071 500.233C136.979 501.678 136.769 503.001 136.599 503.172C136.367 503.408 126.556 500.991 123.209 499.878C122.872 499.764 128.471 497.448 134.503 495.205C135.199 494.947 135.667 494.631 135.54 494.509C135.418 494.386 133.274 495.1 130.777 496.099C128.283 497.097 125.304 498.284 124.163 498.74L122.085 499.563V497.667V495.77L135.317 490.261C142.596 487.234 148.842 484.69 149.205 484.611C149.726 484.497 149.888 485.062 149.988 487.392L150.119 490.322L147.692 491.088C146.358 491.509 145.268 492.004 145.268 492.188C145.268 492.372 146.384 492.135 147.753 491.666C150.22 490.817 150.246 490.817 152.565 491.684C153.842 492.166 154.892 492.402 154.892 492.209C154.892 492.021 153.899 491.509 152.687 491.071L150.478 490.278L150.609 487.37C150.679 485.745 150.929 484.501 151.174 484.541C151.414 484.585 157.761 487.142 165.28 490.221L178.95 495.823V497.688V499.554L175.451 498.249C173.526 497.535 170.35 496.353 168.391 495.621C166.431 494.894 164.734 494.395 164.611 494.518C164.493 494.636 164.865 494.907 165.438 495.118C166.015 495.328 169.125 496.453 172.349 497.623C175.577 498.792 178.036 499.804 177.817 499.878C177.196 500.08 163.181 503.518 162.98 503.518C162.883 503.518 162.735 502.186 162.652 500.561C162.568 498.937 162.494 514.059 162.485 534.175C162.481 554.286 162.551 570.005 162.647 569.103C162.77 567.911 163.023 567.465 163.557 567.473C163.964 567.482 167.349 568.227 171.076 569.129L177.856 570.771L171.186 572.265C167.516 573.088 164.515 573.933 164.515 574.144C164.515 574.354 164.861 574.424 165.28 574.297C167.013 573.78 177.747 571.402 178.346 571.402C178.854 571.402 178.967 571.901 178.862 573.684L178.731 575.97L176.107 576.78C166.203 579.846 151.112 583.971 150.824 583.691C150.631 583.507 150.531 582.097 150.605 580.555L150.736 577.757L153.908 576.89C155.653 576.412 157.079 575.847 157.079 575.637C157.079 575.422 156.768 575.37 156.392 575.514C156.012 575.659 154.472 576.106 152.967 576.509C150.421 577.187 150.028 577.187 147.377 576.522C145.811 576.127 144.201 575.681 143.803 575.527C143.405 575.374 143.081 575.427 143.081 575.637C143.081 575.852 144.608 576.417 146.471 576.89L149.861 577.752L149.988 580.928C150.063 582.675 149.962 584.09 149.77 584.072C149.581 584.055 144.997 582.671 139.582 580.998ZM94.0901 564.881L77.2493 558.841V534.6V510.354L94.0901 504.967C106.732 500.925 111.15 499.681 111.806 499.975C112.287 500.194 114.697 501.867 117.164 503.697L121.648 507.017V518.308V529.594L117.724 531.994C115.567 533.312 113.796 534.512 113.787 534.652C113.778 534.797 115.546 535.721 117.711 536.706L121.648 538.502V550.27V562.038L116.622 566.387C113.857 568.783 111.447 570.78 111.263 570.833C111.08 570.881 103.355 568.205 94.0901 564.881ZM106.338 547.997C106.338 544.038 106.159 540.688 105.944 540.552C105.467 540.258 91.3868 538.559 89.3878 538.555H87.9662V544.66C87.9662 548.457 88.1411 550.875 88.4255 551.05C89.0772 551.453 104.164 555.118 105.354 555.162C106.338 555.197 106.338 555.184 106.338 547.997ZM98.0269 527.387C102.401 526.782 106.058 526.292 106.159 526.292C106.255 526.292 106.338 523.335 106.338 519.722C106.338 513.941 106.25 513.153 105.625 513.153C104.737 513.153 90.2932 516.937 88.9504 517.524C88.0099 517.935 87.9662 518.176 87.9662 523.217V528.482H89.0204C89.6021 528.482 93.6526 527.991 98.0269 527.387ZM182.13 566.453L176.78 561.986L176.772 550.305L176.763 538.629L178.622 537.942C179.645 537.561 182.056 536.676 183.98 535.971L187.48 534.687L182.126 532.13L176.776 529.576L176.767 518.334L176.763 507.096L181.898 503.5C184.719 501.525 187.23 499.834 187.475 499.747C187.716 499.659 195.791 502.02 205.414 504.989L222.911 510.385V534.609V558.832L205.414 564.885C195.791 568.209 187.816 570.929 187.698 570.929C187.58 570.924 185.074 568.91 182.13 566.453ZM201.132 553.253C205.515 552.197 209.303 551.203 209.552 551.045C209.832 550.875 210.007 548.418 210.007 544.66V538.555H208.585C206.586 538.559 192.506 540.258 192.029 540.552C191.814 540.688 191.635 544.038 191.635 547.997C191.635 554.567 191.701 555.197 192.401 555.189C192.821 555.184 196.749 554.313 201.132 553.253ZM210.007 523.007C210.007 519.994 209.902 517.532 209.771 517.532C209.644 517.532 205.829 516.547 201.302 515.343C196.77 514.138 192.746 513.153 192.353 513.153C191.718 513.153 191.635 513.932 191.635 519.696V526.239L193.494 526.498C194.518 526.642 197.812 527.124 200.821 527.571C203.83 528.017 207.124 528.407 208.148 528.433L210.007 528.482V523.007ZM77.1356 488.776L77.2493 474.468L113.708 457.234L150.168 440L186.539 457.247L222.911 474.494L223.025 488.758L223.143 503.027L218.869 501.569C216.52 500.763 214.254 499.966 213.834 499.795C213.134 499.51 213.069 498.586 213.069 489.336V479.189L181.798 465.043C164.598 457.264 150.242 450.962 149.892 451.037C149.546 451.115 135.177 457.483 117.965 465.183L86.6714 479.184L86.5533 489.42L86.4352 499.65L81.8423 501.359C79.314 502.296 77.1968 503.067 77.1356 503.071C77.07 503.075 77.07 496.642 77.1356 488.776ZM94.0901 492.188V487.865L122.19 475.199L150.29 462.533L166.65 470.106C175.647 474.271 183.18 477.678 183.385 477.678C183.591 477.678 183.762 476.382 183.762 474.8C183.762 471.437 183.254 471.472 189.811 474.38L194.041 476.255L194.26 479.614L194.478 482.973L199.837 485.434L205.195 487.9V492.258C205.195 496.195 205.121 496.594 204.43 496.401C204.01 496.287 191.854 491.715 177.419 486.249C162.984 480.783 150.881 476.29 150.517 476.263C150.154 476.241 137.487 480.787 122.365 486.367C107.239 491.947 94.6937 496.51 94.4794 496.51C94.265 496.51 94.0901 494.566 94.0901 492.188Z" fill="#F6F6F6"/>
<rect width="300" height="288" transform="translate(300 387)" fill="#1A3C5A"/>
<path d="M413.555 598.144L377.249 574.165L377.127 569.019L377 563.869L378.439 564.745C379.226 565.227 383.741 567.898 388.474 570.684C405.463 580.7 423.752 592.262 439.945 603.237C445.076 606.715 449.538 609.658 449.857 609.781C450.176 609.908 453.754 607.687 457.805 604.849C475.844 592.218 492.484 581.628 512.85 569.812L522.911 563.974L523.033 568.862C523.125 572.414 523.007 573.889 522.596 574.266C521.822 574.984 450.841 621.846 450.299 622C450.058 622.07 433.524 611.335 413.555 598.144ZM442.473 599.239L439.997 595.083L442.486 591.123L444.98 587.169H450.141H455.307L457.949 591.106L460.596 595.043L458.05 599.099L455.5 603.154L450.229 603.277L444.953 603.399L442.473 599.239ZM452.228 598.796C453.698 598.034 454.664 595.941 454.266 594.364C453.479 591.22 449.997 590.129 447.491 592.244C445.618 593.821 445.588 596.318 447.421 598.153C448.851 599.58 450.329 599.777 452.228 598.796ZM439.582 580.998C434.167 579.329 427.82 577.367 425.475 576.64L421.21 575.317V572.891C421.21 570.679 421.285 570.491 422.068 570.741C422.54 570.889 425.444 571.7 428.52 572.536C431.599 573.377 434.508 574.174 434.989 574.314C435.58 574.485 435.72 574.419 435.426 574.122C435.186 573.876 432.627 573.057 429.74 572.3C423.17 570.578 422.859 570.482 423.056 570.281C423.24 570.101 435.435 567.46 436.096 567.46C436.332 567.46 436.52 568.152 436.52 568.993C436.52 569.834 436.717 570.526 436.957 570.526C437.246 570.526 437.369 558.136 437.312 534.066C437.268 514.011 437.159 498.788 437.071 500.233C436.979 501.678 436.769 503.001 436.599 503.172C436.367 503.408 426.556 500.991 423.209 499.878C422.872 499.764 428.471 497.448 434.503 495.205C435.199 494.947 435.667 494.631 435.54 494.509C435.418 494.386 433.274 495.1 430.777 496.099C428.283 497.097 425.304 498.284 424.163 498.74L422.085 499.563V497.667V495.77L435.317 490.261C442.596 487.234 448.842 484.69 449.205 484.611C449.726 484.497 449.888 485.062 449.988 487.392L450.119 490.322L447.692 491.088C446.358 491.509 445.268 492.004 445.268 492.188C445.268 492.372 446.384 492.135 447.753 491.666C450.22 490.817 450.246 490.817 452.565 491.684C453.842 492.166 454.892 492.402 454.892 492.209C454.892 492.021 453.899 491.509 452.687 491.071L450.478 490.278L450.609 487.37C450.679 485.745 450.929 484.501 451.174 484.541C451.414 484.585 457.761 487.142 465.28 490.221L478.95 495.823V497.688V499.554L475.451 498.249C473.526 497.535 470.35 496.353 468.391 495.621C466.431 494.894 464.734 494.395 464.611 494.518C464.493 494.636 464.865 494.907 465.438 495.118C466.015 495.328 469.125 496.453 472.349 497.623C475.577 498.792 478.036 499.804 477.817 499.878C477.196 500.08 463.181 503.518 462.98 503.518C462.883 503.518 462.735 502.186 462.652 500.561C462.568 498.937 462.494 514.059 462.485 534.175C462.481 554.286 462.551 570.005 462.647 569.103C462.77 567.911 463.023 567.465 463.557 567.473C463.964 567.482 467.349 568.227 471.076 569.129L477.856 570.771L471.186 572.265C467.516 573.088 464.515 573.933 464.515 574.144C464.515 574.354 464.861 574.424 465.28 574.297C467.013 573.78 477.747 571.402 478.346 571.402C478.854 571.402 478.967 571.901 478.862 573.684L478.731 575.97L476.107 576.78C466.203 579.846 451.112 583.971 450.824 583.691C450.631 583.507 450.531 582.097 450.605 580.555L450.736 577.757L453.908 576.89C455.653 576.412 457.079 575.847 457.079 575.637C457.079 575.422 456.768 575.37 456.392 575.514C456.012 575.659 454.472 576.106 452.967 576.509C450.421 577.187 450.028 577.187 447.377 576.522C445.811 576.127 444.201 575.681 443.803 575.527C443.405 575.374 443.081 575.427 443.081 575.637C443.081 575.852 444.608 576.417 446.471 576.89L449.861 577.752L449.988 580.928C450.063 582.675 449.962 584.09 449.77 584.072C449.581 584.055 444.997 582.671 439.582 580.998ZM394.09 564.881L377.249 558.841V534.6V510.354L394.09 504.967C406.732 500.925 411.15 499.681 411.806 499.975C412.287 500.194 414.697 501.867 417.164 503.697L421.648 507.017V518.308V529.594L417.724 531.994C415.567 533.312 413.796 534.512 413.787 534.652C413.778 534.797 415.546 535.721 417.711 536.706L421.648 538.502V550.27V562.038L416.622 566.387C413.857 568.783 411.447 570.78 411.263 570.833C411.08 570.881 403.355 568.205 394.09 564.881ZM406.338 547.997C406.338 544.038 406.159 540.688 405.944 540.552C405.467 540.258 391.387 538.559 389.388 538.555H387.966V544.66C387.966 548.457 388.141 550.875 388.425 551.05C389.077 551.453 404.164 555.118 405.354 555.162C406.338 555.197 406.338 555.184 406.338 547.997ZM398.027 527.387C402.401 526.782 406.058 526.292 406.159 526.292C406.255 526.292 406.338 523.335 406.338 519.722C406.338 513.941 406.25 513.153 405.625 513.153C404.737 513.153 390.293 516.937 388.95 517.524C388.01 517.935 387.966 518.176 387.966 523.217V528.482H389.02C389.602 528.482 393.653 527.991 398.027 527.387ZM482.13 566.453L476.78 561.986L476.772 550.305L476.763 538.629L478.622 537.942C479.645 537.561 482.056 536.676 483.98 535.971L487.48 534.687L482.126 532.13L476.776 529.576L476.767 518.334L476.763 507.096L481.898 503.5C484.719 501.525 487.23 499.834 487.475 499.747C487.716 499.659 495.791 502.02 505.414 504.989L522.911 510.385V534.609V558.832L505.414 564.885C495.791 568.209 487.816 570.929 487.698 570.929C487.58 570.924 485.074 568.91 482.13 566.453ZM501.132 553.253C505.515 552.197 509.303 551.203 509.552 551.045C509.832 550.875 510.007 548.418 510.007 544.66V538.555H508.585C506.586 538.559 492.506 540.258 492.029 540.552C491.814 540.688 491.635 544.038 491.635 547.997C491.635 554.567 491.701 555.197 492.401 555.189C492.821 555.184 496.749 554.313 501.132 553.253ZM510.007 523.007C510.007 519.994 509.902 517.532 509.771 517.532C509.644 517.532 505.829 516.547 501.302 515.343C496.77 514.138 492.746 513.153 492.353 513.153C491.718 513.153 491.635 513.932 491.635 519.696V526.239L493.494 526.498C494.518 526.642 497.812 527.124 500.821 527.571C503.83 528.017 507.124 528.407 508.148 528.433L510.007 528.482V523.007ZM377.136 488.776L377.249 474.468L413.708 457.234L450.168 440L486.539 457.247L522.911 474.494L523.025 488.758L523.143 503.027L518.869 501.569C516.52 500.763 514.254 499.966 513.834 499.795C513.134 499.51 513.069 498.586 513.069 489.336V479.189L481.798 465.043C464.598 457.264 450.242 450.962 449.892 451.037C449.546 451.115 435.177 457.483 417.965 465.183L386.671 479.184L386.553 489.42L386.435 499.65L381.842 501.359C379.314 502.296 377.197 503.067 377.136 503.071C377.07 503.075 377.07 496.642 377.136 488.776ZM394.09 492.188V487.865L422.19 475.199L450.29 462.533L466.65 470.106C475.647 474.271 483.18 477.678 483.385 477.678C483.591 477.678 483.762 476.382 483.762 474.8C483.762 471.437 483.254 471.472 489.811 474.38L494.041 476.255L494.26 479.614L494.478 482.973L499.837 485.434L505.195 487.9V492.258C505.195 496.195 505.121 496.594 504.43 496.401C504.01 496.287 491.854 491.715 477.419 486.249C462.984 480.783 450.881 476.29 450.517 476.263C450.154 476.241 437.487 480.787 422.365 486.367C407.239 491.947 394.694 496.51 394.479 496.51C394.265 496.51 394.09 494.566 394.09 492.188Z" fill="#F6F6F6"/>
<rect width="300" height="288" transform="translate(600 387)" fill="#DA7645"/>
<path d="M716.555 598.144L680.249 574.165L680.127 569.019L680 563.869L681.439 564.745C682.226 565.227 686.741 567.898 691.474 570.684C708.463 580.7 726.752 592.262 742.945 603.237C748.076 606.715 752.538 609.658 752.857 609.781C753.176 609.908 756.754 607.687 760.805 604.849C778.844 592.218 795.484 581.628 815.85 569.812L825.911 563.974L826.033 568.862C826.125 572.414 826.007 573.889 825.596 574.266C824.822 574.984 753.841 621.846 753.299 622C753.058 622.07 736.524 611.335 716.555 598.144ZM745.473 599.239L742.997 595.083L745.486 591.123L747.98 587.169H753.141H758.307L760.949 591.106L763.596 595.043L761.05 599.099L758.5 603.154L753.229 603.277L747.953 603.399L745.473 599.239ZM755.228 598.796C756.698 598.034 757.664 595.941 757.266 594.364C756.479 591.22 752.997 590.129 750.491 592.244C748.618 593.821 748.588 596.318 750.421 598.153C751.851 599.58 753.329 599.777 755.228 598.796ZM742.582 580.998C737.167 579.329 730.82 577.367 728.475 576.64L724.21 575.317V572.891C724.21 570.679 724.285 570.491 725.068 570.741C725.54 570.889 728.444 571.7 731.52 572.536C734.599 573.377 737.508 574.174 737.989 574.314C738.58 574.485 738.72 574.419 738.426 574.122C738.186 573.876 735.627 573.057 732.74 572.3C726.17 570.578 725.859 570.482 726.056 570.281C726.24 570.101 738.435 567.46 739.096 567.46C739.332 567.46 739.52 568.152 739.52 568.993C739.52 569.834 739.717 570.526 739.957 570.526C740.246 570.526 740.369 558.136 740.312 534.066C740.268 514.011 740.159 498.788 740.071 500.233C739.979 501.678 739.769 503.001 739.599 503.172C739.367 503.408 729.556 500.991 726.209 499.878C725.872 499.764 731.471 497.448 737.503 495.205C738.199 494.947 738.667 494.631 738.54 494.509C738.418 494.386 736.274 495.1 733.777 496.099C731.283 497.097 728.304 498.284 727.163 498.74L725.085 499.563V497.667V495.77L738.317 490.261C745.596 487.234 751.842 484.69 752.205 484.611C752.726 484.497 752.888 485.062 752.988 487.392L753.119 490.322L750.692 491.088C749.358 491.509 748.268 492.004 748.268 492.188C748.268 492.372 749.384 492.135 750.753 491.666C753.22 490.817 753.246 490.817 755.565 491.684C756.842 492.166 757.892 492.402 757.892 492.209C757.892 492.021 756.899 491.509 755.687 491.071L753.478 490.278L753.609 487.37C753.679 485.745 753.929 484.501 754.174 484.541C754.414 484.585 760.761 487.142 768.28 490.221L781.95 495.823V497.688V499.554L778.451 498.249C776.526 497.535 773.35 496.353 771.391 495.621C769.431 494.894 767.734 494.395 767.611 494.518C767.493 494.636 767.865 494.907 768.438 495.118C769.015 495.328 772.125 496.453 775.349 497.623C778.577 498.792 781.036 499.804 780.817 499.878C780.196 500.08 766.181 503.518 765.98 503.518C765.883 503.518 765.735 502.186 765.652 500.561C765.568 498.937 765.494 514.059 765.485 534.175C765.481 554.286 765.551 570.005 765.647 569.103C765.77 567.911 766.023 567.465 766.557 567.473C766.964 567.482 770.349 568.227 774.076 569.129L780.856 570.771L774.186 572.265C770.516 573.088 767.515 573.933 767.515 574.144C767.515 574.354 767.861 574.424 768.28 574.297C770.013 573.78 780.747 571.402 781.346 571.402C781.854 571.402 781.967 571.901 781.862 573.684L781.731 575.97L779.107 576.78C769.203 579.846 754.112 583.971 753.824 583.691C753.631 583.507 753.531 582.097 753.605 580.555L753.736 577.757L756.908 576.89C758.653 576.412 760.079 575.847 760.079 575.637C760.079 575.422 759.768 575.37 759.392 575.514C759.012 575.659 757.472 576.106 755.967 576.509C753.421 577.187 753.028 577.187 750.377 576.522C748.811 576.127 747.201 575.681 746.803 575.527C746.405 575.374 746.081 575.427 746.081 575.637C746.081 575.852 747.608 576.417 749.471 576.89L752.861 577.752L752.988 580.928C753.063 582.675 752.962 584.09 752.77 584.072C752.581 584.055 747.997 582.671 742.582 580.998ZM697.09 564.881L680.249 558.841V534.6V510.354L697.09 504.967C709.732 500.925 714.15 499.681 714.806 499.975C715.287 500.194 717.697 501.867 720.164 503.697L724.648 507.017V518.308V529.594L720.724 531.994C718.567 533.312 716.796 534.512 716.787 534.652C716.778 534.797 718.546 535.721 720.711 536.706L724.648 538.502V550.27V562.038L719.622 566.387C716.857 568.783 714.447 570.78 714.263 570.833C714.08 570.881 706.355 568.205 697.09 564.881ZM709.338 547.997C709.338 544.038 709.159 540.688 708.944 540.552C708.467 540.258 694.387 538.559 692.388 538.555H690.966V544.66C690.966 548.457 691.141 550.875 691.425 551.05C692.077 551.453 707.164 555.118 708.354 555.162C709.338 555.197 709.338 555.184 709.338 547.997ZM701.027 527.387C705.401 526.782 709.058 526.292 709.159 526.292C709.255 526.292 709.338 523.335 709.338 519.722C709.338 513.941 709.25 513.153 708.625 513.153C707.737 513.153 693.293 516.937 691.95 517.524C691.01 517.935 690.966 518.176 690.966 523.217V528.482H692.02C692.602 528.482 696.653 527.991 701.027 527.387ZM785.13 566.453L779.78 561.986L779.772 550.305L779.763 538.629L781.622 537.942C782.645 537.561 785.056 536.676 786.98 535.971L790.48 534.687L785.126 532.13L779.776 529.576L779.767 518.334L779.763 507.096L784.898 503.5C787.719 501.525 790.23 499.834 790.475 499.747C790.716 499.659 798.791 502.02 808.414 504.989L825.911 510.385V534.609V558.832L808.414 564.885C798.791 568.209 790.816 570.929 790.698 570.929C790.58 570.924 788.074 568.91 785.13 566.453ZM804.132 553.253C808.515 552.197 812.303 551.203 812.552 551.045C812.832 550.875 813.007 548.418 813.007 544.66V538.555H811.585C809.586 538.559 795.506 540.258 795.029 540.552C794.814 540.688 794.635 544.038 794.635 547.997C794.635 554.567 794.701 555.197 795.401 555.189C795.821 555.184 799.749 554.313 804.132 553.253ZM813.007 523.007C813.007 519.994 812.902 517.532 812.771 517.532C812.644 517.532 808.829 516.547 804.302 515.343C799.77 514.138 795.746 513.153 795.353 513.153C794.718 513.153 794.635 513.932 794.635 519.696V526.239L796.494 526.498C797.518 526.642 800.812 527.124 803.821 527.571C806.83 528.017 810.124 528.407 811.148 528.433L813.007 528.482V523.007ZM680.136 488.776L680.249 474.468L716.708 457.234L753.168 440L789.539 457.247L825.911 474.494L826.025 488.758L826.143 503.027L821.869 501.569C819.52 500.763 817.254 499.966 816.834 499.795C816.134 499.51 816.069 498.586 816.069 489.336V479.189L784.798 465.043C767.598 457.264 753.242 450.962 752.892 451.037C752.546 451.115 738.177 457.483 720.965 465.183L689.671 479.184L689.553 489.42L689.435 499.65L684.842 501.359C682.314 502.296 680.197 503.067 680.136 503.071C680.07 503.075 680.07 496.642 680.136 488.776ZM697.09 492.188V487.865L725.19 475.199L753.29 462.533L769.65 470.106C778.647 474.271 786.18 477.678 786.385 477.678C786.591 477.678 786.762 476.382 786.762 474.8C786.762 471.437 786.254 471.472 792.811 474.38L797.041 476.255L797.26 479.614L797.478 482.973L802.837 485.434L808.195 487.9V492.258C808.195 496.195 808.121 496.594 807.43 496.401C807.01 496.287 794.854 491.715 780.419 486.249C765.984 480.783 753.881 476.29 753.517 476.263C753.154 476.241 740.487 480.787 725.365 486.367C710.239 491.947 697.694 496.51 697.479 496.51C697.265 496.51 697.09 494.566 697.09 492.188Z" fill="#F6F6F6"/>
<rect width="300" height="288" transform="translate(900 387)" fill="#F2F2F0"/>
<path d="M1013.56 598.144L977.249 574.165L977.127 569.019L977 563.869L978.439 564.745C979.226 565.227 983.741 567.898 988.474 570.684C1005.46 580.7 1023.75 592.262 1039.94 603.237C1045.08 606.715 1049.54 609.658 1049.86 609.781C1050.18 609.908 1053.75 607.687 1057.8 604.849C1075.84 592.218 1092.48 581.628 1112.85 569.812L1122.91 563.974L1123.03 568.862C1123.13 572.414 1123.01 573.889 1122.6 574.266C1121.82 574.984 1050.84 621.846 1050.3 622C1050.06 622.07 1033.52 611.335 1013.56 598.144ZM1042.47 599.239L1040 595.083L1042.49 591.123L1044.98 587.169H1050.14H1055.31L1057.95 591.106L1060.6 595.043L1058.05 599.099L1055.5 603.154L1050.23 603.277L1044.95 603.399L1042.47 599.239ZM1052.23 598.796C1053.7 598.034 1054.66 595.941 1054.27 594.364C1053.48 591.22 1050 590.129 1047.49 592.244C1045.62 593.821 1045.59 596.318 1047.42 598.153C1048.85 599.58 1050.33 599.777 1052.23 598.796ZM1039.58 580.998C1034.17 579.329 1027.82 577.367 1025.48 576.64L1021.21 575.317V572.891C1021.21 570.679 1021.28 570.491 1022.07 570.741C1022.54 570.889 1025.44 571.7 1028.52 572.536C1031.6 573.377 1034.51 574.174 1034.99 574.314C1035.58 574.485 1035.72 574.419 1035.43 574.122C1035.19 573.876 1032.63 573.057 1029.74 572.3C1023.17 570.578 1022.86 570.482 1023.06 570.281C1023.24 570.101 1035.44 567.46 1036.1 567.46C1036.33 567.46 1036.52 568.152 1036.52 568.993C1036.52 569.834 1036.72 570.526 1036.96 570.526C1037.25 570.526 1037.37 558.136 1037.31 534.066C1037.27 514.011 1037.16 498.788 1037.07 500.233C1036.98 501.678 1036.77 503.001 1036.6 503.172C1036.37 503.408 1026.56 500.991 1023.21 499.878C1022.87 499.764 1028.47 497.448 1034.5 495.205C1035.2 494.947 1035.67 494.631 1035.54 494.509C1035.42 494.386 1033.27 495.1 1030.78 496.099C1028.28 497.097 1025.3 498.284 1024.16 498.74L1022.09 499.563V497.667V495.77L1035.32 490.261C1042.6 487.234 1048.84 484.69 1049.21 484.611C1049.73 484.497 1049.89 485.062 1049.99 487.392L1050.12 490.322L1047.69 491.088C1046.36 491.509 1045.27 492.004 1045.27 492.188C1045.27 492.372 1046.38 492.135 1047.75 491.666C1050.22 490.817 1050.25 490.817 1052.56 491.684C1053.84 492.166 1054.89 492.402 1054.89 492.209C1054.89 492.021 1053.9 491.509 1052.69 491.071L1050.48 490.278L1050.61 487.37C1050.68 485.745 1050.93 484.501 1051.17 484.541C1051.41 484.585 1057.76 487.142 1065.28 490.221L1078.95 495.823V497.688V499.554L1075.45 498.249C1073.53 497.535 1070.35 496.353 1068.39 495.621C1066.43 494.894 1064.73 494.395 1064.61 494.518C1064.49 494.636 1064.86 494.907 1065.44 495.118C1066.02 495.328 1069.13 496.453 1072.35 497.623C1075.58 498.792 1078.04 499.804 1077.82 499.878C1077.2 500.08 1063.18 503.518 1062.98 503.518C1062.88 503.518 1062.73 502.186 1062.65 500.561C1062.57 498.937 1062.49 514.059 1062.49 534.175C1062.48 554.286 1062.55 570.005 1062.65 569.103C1062.77 567.911 1063.02 567.465 1063.56 567.473C1063.96 567.482 1067.35 568.227 1071.08 569.129L1077.86 570.771L1071.19 572.265C1067.52 573.088 1064.51 573.933 1064.51 574.144C1064.51 574.354 1064.86 574.424 1065.28 574.297C1067.01 573.78 1077.75 571.402 1078.35 571.402C1078.85 571.402 1078.97 571.901 1078.86 573.684L1078.73 575.97L1076.11 576.78C1066.2 579.846 1051.11 583.971 1050.82 583.691C1050.63 583.507 1050.53 582.097 1050.6 580.555L1050.74 577.757L1053.91 576.89C1055.65 576.412 1057.08 575.847 1057.08 575.637C1057.08 575.422 1056.77 575.37 1056.39 575.514C1056.01 575.659 1054.47 576.106 1052.97 576.509C1050.42 577.187 1050.03 577.187 1047.38 576.522C1045.81 576.127 1044.2 575.681 1043.8 575.527C1043.41 575.374 1043.08 575.427 1043.08 575.637C1043.08 575.852 1044.61 576.417 1046.47 576.89L1049.86 577.752L1049.99 580.928C1050.06 582.675 1049.96 584.09 1049.77 584.072C1049.58 584.055 1045 582.671 1039.58 580.998ZM994.09 564.881L977.249 558.841V534.6V510.354L994.09 504.967C1006.73 500.925 1011.15 499.681 1011.81 499.975C1012.29 500.194 1014.7 501.867 1017.16 503.697L1021.65 507.017V518.308V529.594L1017.72 531.994C1015.57 533.312 1013.8 534.512 1013.79 534.652C1013.78 534.797 1015.55 535.721 1017.71 536.706L1021.65 538.502V550.27V562.038L1016.62 566.387C1013.86 568.783 1011.45 570.78 1011.26 570.833C1011.08 570.881 1003.35 568.205 994.09 564.881ZM1006.34 547.997C1006.34 544.038 1006.16 540.688 1005.94 540.552C1005.47 540.258 991.387 538.559 989.388 538.555H987.966V544.66C987.966 548.457 988.141 550.875 988.425 551.05C989.077 551.453 1004.16 555.118 1005.35 555.162C1006.34 555.197 1006.34 555.184 1006.34 547.997ZM998.027 527.387C1002.4 526.782 1006.06 526.292 1006.16 526.292C1006.25 526.292 1006.34 523.335 1006.34 519.722C1006.34 513.941 1006.25 513.153 1005.62 513.153C1004.74 513.153 990.293 516.937 988.95 517.524C988.01 517.935 987.966 518.176 987.966 523.217V528.482H989.02C989.602 528.482 993.653 527.991 998.027 527.387ZM1082.13 566.453L1076.78 561.986L1076.77 550.305L1076.76 538.629L1078.62 537.942C1079.65 537.561 1082.06 536.676 1083.98 535.971L1087.48 534.687L1082.13 532.13L1076.78 529.576L1076.77 518.334L1076.76 507.096L1081.9 503.5C1084.72 501.525 1087.23 499.834 1087.48 499.747C1087.72 499.659 1095.79 502.02 1105.41 504.989L1122.91 510.385V534.609V558.832L1105.41 564.885C1095.79 568.209 1087.82 570.929 1087.7 570.929C1087.58 570.924 1085.07 568.91 1082.13 566.453ZM1101.13 553.253C1105.51 552.197 1109.3 551.203 1109.55 551.045C1109.83 550.875 1110.01 548.418 1110.01 544.66V538.555H1108.59C1106.59 538.559 1092.51 540.258 1092.03 540.552C1091.81 540.688 1091.64 544.038 1091.64 547.997C1091.64 554.567 1091.7 555.197 1092.4 555.189C1092.82 555.184 1096.75 554.313 1101.13 553.253ZM1110.01 523.007C1110.01 519.994 1109.9 517.532 1109.77 517.532C1109.64 517.532 1105.83 516.547 1101.3 515.343C1096.77 514.138 1092.75 513.153 1092.35 513.153C1091.72 513.153 1091.64 513.932 1091.64 519.696V526.239L1093.49 526.498C1094.52 526.642 1097.81 527.124 1100.82 527.571C1103.83 528.017 1107.12 528.407 1108.15 528.433L1110.01 528.482V523.007ZM977.136 488.776L977.249 474.468L1013.71 457.234L1050.17 440L1086.54 457.247L1122.91 474.494L1123.02 488.758L1123.14 503.027L1118.87 501.569C1116.52 500.763 1114.25 499.966 1113.83 499.795C1113.13 499.51 1113.07 498.586 1113.07 489.336V479.189L1081.8 465.043C1064.6 457.264 1050.24 450.962 1049.89 451.037C1049.55 451.115 1035.18 457.483 1017.96 465.183L986.671 479.184L986.553 489.42L986.435 499.65L981.842 501.359C979.314 502.296 977.197 503.067 977.136 503.071C977.07 503.075 977.07 496.642 977.136 488.776ZM994.09 492.188V487.865L1022.19 475.199L1050.29 462.533L1066.65 470.106C1075.65 474.271 1083.18 477.678 1083.39 477.678C1083.59 477.678 1083.76 476.382 1083.76 474.8C1083.76 471.437 1083.25 471.472 1089.81 474.38L1094.04 476.255L1094.26 479.614L1094.48 482.973L1099.84 485.434L1105.2 487.9V492.258C1105.2 496.195 1105.12 496.594 1104.43 496.401C1104.01 496.287 1091.85 491.715 1077.42 486.249C1062.98 480.783 1050.88 476.29 1050.52 476.263C1050.15 476.241 1037.49 480.787 1022.37 486.367C1007.24 491.947 994.694 496.51 994.479 496.51C994.265 496.51 994.09 494.566 994.09 492.188Z" fill="#1B1B1B"/>
<path d="M1013.56 598.144L977.249 574.165L977.127 569.019L977 563.869L978.439 564.745C979.226 565.227 983.741 567.898 988.474 570.684C1005.46 580.7 1023.75 592.262 1039.94 603.237C1045.08 606.715 1049.54 609.658 1049.86 609.781C1050.18 609.908 1053.75 607.687 1057.8 604.849C1075.84 592.218 1092.48 581.628 1112.85 569.812L1122.91 563.974L1123.03 568.862C1123.13 572.414 1123.01 573.889 1122.6 574.266C1121.82 574.984 1050.84 621.846 1050.3 622C1050.06 622.07 1033.52 611.335 1013.56 598.144ZM1042.47 599.239L1040 595.083L1042.49 591.123L1044.98 587.169H1050.14H1055.31L1057.95 591.106L1060.6 595.043L1058.05 599.099L1055.5 603.154L1050.23 603.277L1044.95 603.399L1042.47 599.239ZM1052.23 598.796C1053.7 598.034 1054.66 595.941 1054.27 594.364C1053.48 591.22 1050 590.129 1047.49 592.244C1045.62 593.821 1045.59 596.318 1047.42 598.153C1048.85 599.58 1050.33 599.777 1052.23 598.796ZM1039.58 580.998C1034.17 579.329 1027.82 577.367 1025.48 576.64L1021.21 575.317V572.891C1021.21 570.679 1021.28 570.491 1022.07 570.741C1022.54 570.889 1025.44 571.7 1028.52 572.536C1031.6 573.377 1034.51 574.174 1034.99 574.314C1035.58 574.485 1035.72 574.419 1035.43 574.122C1035.19 573.876 1032.63 573.057 1029.74 572.3C1023.17 570.578 1022.86 570.482 1023.06 570.281C1023.24 570.101 1035.44 567.46 1036.1 567.46C1036.33 567.46 1036.52 568.152 1036.52 568.993C1036.52 569.834 1036.72 570.526 1036.96 570.526C1037.25 570.526 1037.37 558.136 1037.31 534.066C1037.27 514.011 1037.16 498.788 1037.07 500.233C1036.98 501.678 1036.77 503.001 1036.6 503.172C1036.37 503.408 1026.56 500.991 1023.21 499.878C1022.87 499.764 1028.47 497.448 1034.5 495.205C1035.2 494.947 1035.67 494.631 1035.54 494.509C1035.42 494.386 1033.27 495.1 1030.78 496.099C1028.28 497.097 1025.3 498.284 1024.16 498.74L1022.09 499.563V497.667V495.77L1035.32 490.261C1042.6 487.234 1048.84 484.69 1049.21 484.611C1049.73 484.497 1049.89 485.062 1049.99 487.392L1050.12 490.322L1047.69 491.088C1046.36 491.509 1045.27 492.004 1045.27 492.188C1045.27 492.372 1046.38 492.135 1047.75 491.666C1050.22 490.817 1050.25 490.817 1052.56 491.684C1053.84 492.166 1054.89 492.402 1054.89 492.209C1054.89 492.021 1053.9 491.509 1052.69 491.071L1050.48 490.278L1050.61 487.37C1050.68 485.745 1050.93 484.501 1051.17 484.541C1051.41 484.585 1057.76 487.142 1065.28 490.221L1078.95 495.823V497.688V499.554L1075.45 498.249C1073.53 497.535 1070.35 496.353 1068.39 495.621C1066.43 494.894 1064.73 494.395 1064.61 494.518C1064.49 494.636 1064.86 494.907 1065.44 495.118C1066.02 495.328 1069.13 496.453 1072.35 497.623C1075.58 498.792 1078.04 499.804 1077.82 499.878C1077.2 500.08 1063.18 503.518 1062.98 503.518C1062.88 503.518 1062.73 502.186 1062.65 500.561C1062.57 498.937 1062.49 514.059 1062.49 534.175C1062.48 554.286 1062.55 570.005 1062.65 569.103C1062.77 567.911 1063.02 567.465 1063.56 567.473C1063.96 567.482 1067.35 568.227 1071.08 569.129L1077.86 570.771L1071.19 572.265C1067.52 573.088 1064.51 573.933 1064.51 574.144C1064.51 574.354 1064.86 574.424 1065.28 574.297C1067.01 573.78 1077.75 571.402 1078.35 571.402C1078.85 571.402 1078.97 571.901 1078.86 573.684L1078.73 575.97L1076.11 576.78C1066.2 579.846 1051.11 583.971 1050.82 583.691C1050.63 583.507 1050.53 582.097 1050.6 580.555L1050.74 577.757L1053.91 576.89C1055.65 576.412 1057.08 575.847 1057.08 575.637C1057.08 575.422 1056.77 575.37 1056.39 575.514C1056.01 575.659 1054.47 576.106 1052.97 576.509C1050.42 577.187 1050.03 577.187 1047.38 576.522C1045.81 576.127 1044.2 575.681 1043.8 575.527C1043.41 575.374 1043.08 575.427 1043.08 575.637C1043.08 575.852 1044.61 576.417 1046.47 576.89L1049.86 577.752L1049.99 580.928C1050.06 582.675 1049.96 584.09 1049.77 584.072C1049.58 584.055 1045 582.671 1039.58 580.998ZM994.09 564.881L977.249 558.841V534.6V510.354L994.09 504.967C1006.73 500.925 1011.15 499.681 1011.81 499.975C1012.29 500.194 1014.7 501.867 1017.16 503.697L1021.65 507.017V518.308V529.594L1017.72 531.994C1015.57 533.312 1013.8 534.512 1013.79 534.652C1013.78 534.797 1015.55 535.721 1017.71 536.706L1021.65 538.502V550.27V562.038L1016.62 566.387C1013.86 568.783 1011.45 570.78 1011.26 570.833C1011.08 570.881 1003.35 568.205 994.09 564.881ZM1006.34 547.997C1006.34 544.038 1006.16 540.688 1005.94 540.552C1005.47 540.258 991.387 538.559 989.388 538.555H987.966V544.66C987.966 548.457 988.141 550.875 988.425 551.05C989.077 551.453 1004.16 555.118 1005.35 555.162C1006.34 555.197 1006.34 555.184 1006.34 547.997ZM998.027 527.387C1002.4 526.782 1006.06 526.292 1006.16 526.292C1006.25 526.292 1006.34 523.335 1006.34 519.722C1006.34 513.941 1006.25 513.153 1005.62 513.153C1004.74 513.153 990.293 516.937 988.95 517.524C988.01 517.935 987.966 518.176 987.966 523.217V528.482H989.02C989.602 528.482 993.653 527.991 998.027 527.387ZM1082.13 566.453L1076.78 561.986L1076.77 550.305L1076.76 538.629L1078.62 537.942C1079.65 537.561 1082.06 536.676 1083.98 535.971L1087.48 534.687L1082.13 532.13L1076.78 529.576L1076.77 518.334L1076.76 507.096L1081.9 503.5C1084.72 501.525 1087.23 499.834 1087.48 499.747C1087.72 499.659 1095.79 502.02 1105.41 504.989L1122.91 510.385V534.609V558.832L1105.41 564.885C1095.79 568.209 1087.82 570.929 1087.7 570.929C1087.58 570.924 1085.07 568.91 1082.13 566.453ZM1101.13 553.253C1105.51 552.197 1109.3 551.203 1109.55 551.045C1109.83 550.875 1110.01 548.418 1110.01 544.66V538.555H1108.59C1106.59 538.559 1092.51 540.258 1092.03 540.552C1091.81 540.688 1091.64 544.038 1091.64 547.997C1091.64 554.567 1091.7 555.197 1092.4 555.189C1092.82 555.184 1096.75 554.313 1101.13 553.253ZM1110.01 523.007C1110.01 519.994 1109.9 517.532 1109.77 517.532C1109.64 517.532 1105.83 516.547 1101.3 515.343C1096.77 514.138 1092.75 513.153 1092.35 513.153C1091.72 513.153 1091.64 513.932 1091.64 519.696V526.239L1093.49 526.498C1094.52 526.642 1097.81 527.124 1100.82 527.571C1103.83 528.017 1107.12 528.407 1108.15 528.433L1110.01 528.482V523.007ZM977.136 488.776L977.249 474.468L1013.71 457.234L1050.17 440L1086.54 457.247L1122.91 474.494L1123.02 488.758L1123.14 503.027L1118.87 501.569C1116.52 500.763 1114.25 499.966 1113.83 499.795C1113.13 499.51 1113.07 498.586 1113.07 489.336V479.189L1081.8 465.043C1064.6 457.264 1050.24 450.962 1049.89 451.037C1049.55 451.115 1035.18 457.483 1017.96 465.183L986.671 479.184L986.553 489.42L986.435 499.65L981.842 501.359C979.314 502.296 977.197 503.067 977.136 503.071C977.07 503.075 977.07 496.642 977.136 488.776ZM994.09 492.188V487.865L1022.19 475.199L1050.29 462.533L1066.65 470.106C1075.65 474.271 1083.18 477.678 1083.39 477.678C1083.59 477.678 1083.76 476.382 1083.76 474.8C1083.76 471.437 1083.25 471.472 1089.81 474.38L1094.04 476.255L1094.26 479.614L1094.48 482.973L1099.84 485.434L1105.2 487.9V492.258C1105.2 496.195 1105.12 496.594 1104.43 496.401C1104.01 496.287 1091.85 491.715 1077.42 486.249C1062.98 480.783 1050.88 476.29 1050.52 476.263C1050.15 476.241 1037.49 480.787 1022.37 486.367C1007.24 491.947 994.694 496.51 994.479 496.51C994.265 496.51 994.09 494.566 994.09 492.188Z" fill="#1B1B1B"/>
</svg>
