<svg width="334" height="416" viewBox="0 0 334 416" fill="none" xmlns="http://www.w3.org/2000/svg">
<path opacity="0.3" d="M70.2866 230V263L30.5117 253.5V225.5L70.2866 230Z" stroke="white"/>
<path d="M334 160.807V271.174L252.816 299.141L227.752 278.166V225.229L252.816 216.24L227.752 204.255V153.316L252.816 135.837L334 160.807Z" fill="url(#paint0_linear_780_2011)"/>
<path d="M78.46 135.837L0 160.807V271.174L78.46 299.141L102.434 278.166V225.229L83.3638 216.24L102.434 204.255V153.316L78.46 135.837Z" fill="url(#paint1_linear_780_2011)"/>
<path d="M311.116 136L334 144V79L167.272 0L0 79V144L21.7945 136V89.5L167.272 24.5L311.116 89.5V136Z" fill="url(#paint2_linear_780_2011)"/>
<path d="M39 108.866L167.635 51L243.399 85.9713V71.6306L268.472 82.7006L268.2 97.4188L293 108.866V130L167.635 82.7006L39 130V108.866Z" fill="url(#paint3_linear_780_2011)"/>
<path d="M334 160.924V271.086L253.005 299L228 278.064V225.226L253.005 216.254L228 204.291V153.446L253.005 136L334 160.924Z" fill="url(#paint4_linear_780_2011)"/>
<path d="M232.457 310.5V299.5L199.864 307V305.5L230.556 298.5L196.5 290.5V298H194.975V145.5V132H196.5V145.124L197.258 144.938L199.541 144.375L204.106 143.25L213.238 141L231.5 136.5L199.864 125V123.5L233 136V127.5L168.5 101V115L178 118.5V120L167.5 116L156 120V118.5L166.5 115V101L102.63 127.5V136L134 123.5V125L104.5 136.5L111.457 138.375L120.284 140.75L129.111 143.125L133.525 144.312L136.5 144.906V132H137.938V145.5V298H136.309V290.5L103.5 297.5L133.593 305.5V307L101 298V309L166.5 329V314.5L150.975 310.5V309L167.5 313.5L183.025 309V310.5L168.5 314.5V329L201.222 319.75L232.457 310.5Z" fill="url(#paint5_linear_780_2011)"/>
<path d="M167.272 388.603C230.598 343.715 267.161 320.783 334 283V305.914L167.272 416L0 305.914V283C66.932 322.002 103.529 345.191 167.272 388.603Z" fill="url(#paint6_linear_780_2011)"/>
<path d="M263 196.5V167L303 177.5V202L263 196.5Z" fill="white" stroke="white"/>
<path d="M263 229.56V263L303 253.373V225L263 229.56Z" fill="white" stroke="white"/>
<path d="M66 196.5V167L26 177.5V202L66 196.5Z" fill="white" stroke="white"/>
<path d="M66 229.56V263L26 253.373V225L66 229.56Z" fill="white" stroke="white"/>
<g clip-path="url(#paint7_angular_780_2011_clip_path)" data-figma-skip-parse="true"><g transform="matrix(0.011 -0.002 0.00164649 0.00905569 167 355)"><foreignObject x="-2604.33" y="-2604.33" width="5208.66" height="5208.66"><div xmlns="http://www.w3.org/1999/xhtml" style="background:conic-gradient(from 90deg,rgba(0, 0, 0, 1) 0deg,rgba(39, 45, 50, 1) 41.0955deg,rgba(10, 11, 12, 1) 74.4231deg,rgba(10, 11, 11, 1) 122.885deg,rgba(66, 70, 74, 1) 176.538deg,rgba(4, 5, 5, 1) 231.923deg,rgba(60, 65, 68, 1) 274.325deg,rgba(29, 29, 29, 1) 301.461deg,rgba(74, 79, 84, 1) 327.633deg,rgba(0, 0, 0, 1) 360deg);height:100%;width:100%;opacity:1"></div></foreignObject></g></g><path d="M144 353.998L155.481 336H178.921L190.88 353.998L178.921 373.313H155.481L144 353.998Z" data-figma-gradient-fill="{&#34;type&#34;:&#34;GRADIENT_ANGULAR&#34;,&#34;stops&#34;:[{&#34;color&#34;:{&#34;r&#34;:0.15294118225574493,&#34;g&#34;:0.17647059261798859,&#34;b&#34;:0.19607843458652496,&#34;a&#34;:1.0},&#34;position&#34;:0.11415421217679977},{&#34;color&#34;:{&#34;r&#34;:0.039215687662363052,&#34;g&#34;:0.043137256056070328,&#34;b&#34;:0.047058824449777603,&#34;a&#34;:1.0},&#34;position&#34;:0.20673076808452606},{&#34;color&#34;:{&#34;r&#34;:0.040606405586004257,&#34;g&#34;:0.043632216751575470,&#34;b&#34;:0.046153727918863297,&#34;a&#34;:1.0},&#34;position&#34;:0.34134614467620850},{&#34;color&#34;:{&#34;r&#34;:0.26054722070693970,&#34;g&#34;:0.27787107229232788,&#34;b&#34;:0.29230764508247375,&#34;a&#34;:1.0},&#34;position&#34;:0.49038460850715637},{&#34;color&#34;:{&#34;r&#34;:0.017818000167608261,&#34;g&#34;:0.020686471834778786,&#34;b&#34;:0.023076863959431648,&#34;a&#34;:1.0},&#34;position&#34;:0.64423078298568726},{&#34;color&#34;:{&#34;r&#34;:0.23775784671306610,&#34;g&#34;:0.25522282719612122,&#34;b&#34;:0.26977699995040894,&#34;a&#34;:1.0},&#34;position&#34;:0.76201432943344116},{&#34;color&#34;:{&#34;r&#34;:0.11405309289693832,&#34;g&#34;:0.11477930098772049,&#34;b&#34;:0.11538446694612503,&#34;a&#34;:1.0},&#34;position&#34;:0.83739286661148071},{&#34;color&#34;:{&#34;r&#34;:0.29052373766899109,&#34;g&#34;:0.31210523843765259,&#34;b&#34;:0.33008983731269836,&#34;a&#34;:1.0},&#34;position&#34;:0.91009104251861572},{&#34;color&#34;:{&#34;r&#34;:0.0,&#34;g&#34;:0.0,&#34;b&#34;:0.0,&#34;a&#34;:1.0},&#34;position&#34;:1.0}],&#34;stopsVar&#34;:[{&#34;color&#34;:{&#34;r&#34;:0.15294118225574493,&#34;g&#34;:0.17647059261798859,&#34;b&#34;:0.19607843458652496,&#34;a&#34;:1.0},&#34;position&#34;:0.11415421217679977},{&#34;color&#34;:{&#34;r&#34;:0.039215687662363052,&#34;g&#34;:0.043137256056070328,&#34;b&#34;:0.047058824449777603,&#34;a&#34;:1.0},&#34;position&#34;:0.20673076808452606},{&#34;color&#34;:{&#34;r&#34;:0.040606405586004257,&#34;g&#34;:0.043632216751575470,&#34;b&#34;:0.046153727918863297,&#34;a&#34;:1.0},&#34;position&#34;:0.34134614467620850},{&#34;color&#34;:{&#34;r&#34;:0.26054722070693970,&#34;g&#34;:0.27787107229232788,&#34;b&#34;:0.29230764508247375,&#34;a&#34;:1.0},&#34;position&#34;:0.49038460850715637},{&#34;color&#34;:{&#34;r&#34;:0.017818000167608261,&#34;g&#34;:0.020686471834778786,&#34;b&#34;:0.023076863959431648,&#34;a&#34;:1.0},&#34;position&#34;:0.64423078298568726},{&#34;color&#34;:{&#34;r&#34;:0.23775784671306610,&#34;g&#34;:0.25522282719612122,&#34;b&#34;:0.26977699995040894,&#34;a&#34;:1.0},&#34;position&#34;:0.76201432943344116},{&#34;color&#34;:{&#34;r&#34;:0.11405309289693832,&#34;g&#34;:0.11477930098772049,&#34;b&#34;:0.11538446694612503,&#34;a&#34;:1.0},&#34;position&#34;:0.83739286661148071},{&#34;color&#34;:{&#34;r&#34;:0.29052373766899109,&#34;g&#34;:0.31210523843765259,&#34;b&#34;:0.33008983731269836,&#34;a&#34;:1.0},&#34;position&#34;:0.91009104251861572},{&#34;color&#34;:{&#34;r&#34;:0.0,&#34;g&#34;:0.0,&#34;b&#34;:0.0,&#34;a&#34;:1.0},&#34;position&#34;:1.0}],&#34;transform&#34;:{&#34;m00&#34;:21.999998092651367,&#34;m01&#34;:3.2929794788360596,&#34;m02&#34;:154.3535156250,&#34;m10&#34;:-4.0000009536743164,&#34;m11&#34;:18.111383438110352,&#34;m12&#34;:347.94430541992188},&#34;opacity&#34;:1.0,&#34;blendMode&#34;:&#34;NORMAL&#34;,&#34;visible&#34;:true}"/>
<circle cx="167.201" cy="354.437" r="9.65761" fill="white"/>
<defs>
<clipPath id="paint7_angular_780_2011_clip_path"><path d="M144 353.998L155.481 336H178.921L190.88 353.998L178.921 373.313H155.481L144 353.998Z"/></clipPath><linearGradient id="paint0_linear_780_2011" x1="0" y1="217" x2="167" y2="217" gradientUnits="userSpaceOnUse">
<stop stop-color="#1A3C5A"/>
<stop offset="1" stop-color="#3780C0"/>
</linearGradient>
<linearGradient id="paint1_linear_780_2011" x1="0" y1="217" x2="167" y2="217" gradientUnits="userSpaceOnUse">
<stop stop-color="#1A3C5A"/>
<stop offset="1" stop-color="#3780C0"/>
</linearGradient>
<linearGradient id="paint2_linear_780_2011" x1="136" y1="76.1053" x2="196.5" y2="76.1053" gradientUnits="userSpaceOnUse">
<stop stop-color="#141414"/>
<stop offset="0.490385" stop-color="#42474B"/>
<stop offset="1" stop-color="#020202"/>
</linearGradient>
<linearGradient id="paint3_linear_780_2011" x1="137" y1="91" x2="189" y2="91" gradientUnits="userSpaceOnUse">
<stop stop-color="#D5591C"/>
<stop offset="0.54504" stop-color="#DA7645"/>
<stop offset="1" stop-color="#D5591C"/>
</linearGradient>
<linearGradient id="paint4_linear_780_2011" x1="353" y1="218" x2="155" y2="218" gradientUnits="userSpaceOnUse">
<stop stop-color="#1A3C5A"/>
<stop offset="1" stop-color="#3780C0"/>
</linearGradient>
<linearGradient id="paint5_linear_780_2011" x1="138" y1="221.5" x2="196" y2="221.5" gradientUnits="userSpaceOnUse">
<stop stop-color="#1E1E1E"/>
<stop offset="0.490385" stop-color="#42474B"/>
<stop offset="1" stop-color="#1E1E1E"/>
</linearGradient>
<linearGradient id="paint6_linear_780_2011" x1="147.5" y1="355.5" x2="189" y2="355" gradientUnits="userSpaceOnUse">
<stop stop-color="#1D1D1D"/>
<stop offset="0.498487" stop-color="#42474B"/>
<stop offset="1" stop-color="#1C1C1C"/>
</linearGradient>
</defs>
</svg>
