<svg width="193" height="327" viewBox="0 0 193 327" fill="none" xmlns="http://www.w3.org/2000/svg">
<ellipse cx="98.901" cy="138.377" rx="66.8383" ry="65.91" fill="#0B773D"/>
<path d="M55.7345 88.248C12.568 126.309 49.7004 158.8 0.5 215.427L0.5 228.423L97.9726 325.431L192.5 228.423V210.801C149.158 157.005 183.116 125.26 141.139 88.248L55.7345 88.248Z" fill="#0B773D" stroke="#0B773D"/>
<path d="M45.5231 178.295C50.598 161.585 50.598 158.745 50.598 137.248C50.598 112.089 70.844 91.9629 98.6698 91.9629C126.496 91.9629 147.173 114.554 147.173 142.091C147.173 162.217 149.958 169.013 153.207 178.296" stroke="#F67810" stroke-width="13" stroke-linecap="square"/>
<path d="M70.9335 127.535C87.3568 124.214 91.4263 119.696 99.365 108.207L99.4134 108.27C107.84 119.22 112.09 124.743 128.143 127.535V146.732C128.143 182.936 70.9334 184.328 70.9335 146.565V127.535Z" fill="#F7A342" stroke="#F7A342"/>
<circle cx="87.297" cy="140.698" r="5.10571" fill="#0B773D"/>
<circle cx="111.433" cy="140.698" r="5.10571" fill="#0B773D"/>
<path d="M181.463 228.996L102.748 309.422C100.386 311.836 96.4982 311.825 94.1493 309.399L16.1801 228.859C14.8817 227.518 14.6795 225.444 15.75 223.915C27.2227 207.525 38.6131 203.064 60.8401 198.717H74.7648L98.4367 229.815L123.037 198.717L136.962 198.717C163.443 203.696 171.551 210.327 181.807 223.84C182.992 225.402 182.834 227.595 181.463 228.996Z" fill="#F67810" stroke="#F67810"/>
<path d="M55.7344 89.5856C36.8687 64.7809 28.2599 50.8659 21.8511 34.8153L23.2435 28.7812L172.237 28.7813L173.63 34.8153C167.221 50.8659 158.612 64.7809 139.746 89.5856L91.9385 80.3025L55.7344 89.5856Z" fill="#0B773D" stroke="#0B773D"/>
<path d="M63.161 76.3675C88.8771 64.6708 109.33 64.2481 134.177 76.3674" stroke="#F67810" stroke-width="13"/>
<path d="M131.426 52.6887L132.32 34.8145H157.834C158.522 34.8145 159.004 35.4962 158.775 36.1453C155.633 45.059 153.24 50.4396 145.799 58.8719C145.514 59.195 145.05 59.2991 144.654 59.1278L132.028 53.6561C131.645 53.4904 131.406 53.1049 131.426 52.6887Z" fill="#A5D13E" stroke="#A5D13E"/>
<path d="M66.8395 52.2258L65.9458 34.3516H40.4319C39.7437 34.3516 39.262 35.0333 39.4908 35.6824C42.6329 44.5961 45.0264 49.9767 52.4673 58.409C52.7524 58.7321 53.2163 58.8362 53.6116 58.6649L66.2384 53.1933C66.6208 53.0275 66.8604 52.642 66.8395 52.2258Z" fill="#A5D13E" stroke="#A5D13E"/>
<path d="M70.5874 201.447L97.194 236.078C97.9882 237.112 99.5432 237.122 100.35 236.098L127.678 201.447" stroke="white" stroke-width="13"/>
<path d="M61.7686 198.197H74.3007L66.4101 205.16L61.7686 198.197Z" fill="white" stroke="white"/>
<path d="M136.498 198.197H123.965L131.856 205.16L136.498 198.197Z" fill="white" stroke="white"/>
<path d="M54.8062 198.662L61.7685 232.081C70.5874 269.678 125.822 267.357 135.569 232.081L143.46 198.662" stroke="#0B763D" stroke-width="13"/>
<path d="M99.9515 6.50488C112.546 6.74137 124.896 16.3724 124.896 33.3701V55.0254L116.916 53.1611C109.835 51.5066 104.662 50.7891 99.6908 50.8037C94.7146 50.8184 89.6369 51.5676 82.7269 53.165L74.7631 55.0059V33.3682C74.7631 24.8896 77.6327 17.9868 82.5424 13.2305C87.3832 8.54084 93.7496 6.38851 99.9515 6.50488Z" fill="#A5D13E" stroke="#0B773D" stroke-width="13"/>
</svg>
