<svg width="156" height="155" viewBox="0 0 156 155" fill="none" xmlns="http://www.w3.org/2000/svg">
<path d="M93.6073 72.1702C93.5668 68.4499 91.3987 69.1857 90.6614 66.2823C90.5998 65.7896 90.5368 65.3414 90.4584 65.001C90.4199 64.5288 90.2345 63.9363 89.9528 63.3188C89.8285 62.9354 89.7162 62.5266 89.625 61.9098C88.6933 55.6098 82.272 58.0227 74.6842 61.2232C70.1962 63.1163 67.4576 67.7322 65.0838 71.7333L65.0696 71.7571C61.0905 78.464 59.5085 85.1592 59.5085 92.9427C59.5085 97.8668 58.1136 110.941 54.0825 118.405C53.9988 118.405 53.9146 118.405 53.8298 118.405C50.6167 118.405 47.3766 118.52 44.176 118.189C42.3769 118.002 39.958 117.807 38.0439 116.999C35.5872 112.768 34.3818 107.439 33.1124 103.104C30.2591 93.3595 29.7557 83.0023 28.7653 72.9341C27.9164 64.3042 27.8492 55.7364 27.4338 47.0799C27.2476 43.1999 26.8062 38.8096 26.9643 34.5919C28.2679 32.75 29.8008 31.0534 31.5067 29.4449C34.253 26.8557 37.7227 25.5024 41.278 24.4232C47.9277 22.4045 54.7069 21.2872 61.6233 20.7942C68.0624 20.3351 74.6344 19.8298 81.0874 20.4018C88.3442 21.0452 94.9508 24.6343 101.061 28.3856C106.157 31.515 111.237 35.097 114.871 39.9146C118.286 48.6445 119.586 57.944 124.441 66.1469C127.581 71.4519 132.234 75.5411 134.963 81.0182C134.853 83.0698 134.388 85.0769 133.449 86.9794C130.431 93.0941 123.139 100.374 125.146 107.812C125.411 108.794 126.293 110.199 127.183 110.715C128.101 111.247 128.486 109.12 128.867 108.44C131.005 104.611 133.692 101.443 135.133 97.219C136.533 93.112 137.6 88.5833 136.288 84.3115C135.932 83.1516 135.482 82.0598 134.963 81.0182C135.338 74.0586 131.635 66.5864 128.514 60.9486C124.499 53.6958 119.919 46.6808 114.964 40.0377C114.933 39.9966 114.902 39.9555 114.871 39.9146C114.869 39.9098 114.868 39.9051 114.866 39.9004C112.087 32.8009 108.717 27.4171 101.687 23.972C94.2797 20.3417 85.8097 19.1507 77.876 17.224C74.9008 16.5015 71.8297 16.714 68.7902 16.714C64.2001 16.714 59.5928 16.5984 55.0047 16.7336C49.2347 16.9036 42.9816 18.2761 37.5379 20.1272C33.6725 21.4416 29.0314 23.7857 27.8646 28.0718C27.3053 30.1259 27.049 32.3342 26.9643 34.5919C25.3494 36.8739 24.0864 39.3787 23.2825 42.2151C21.6225 48.0714 22.1467 54.5573 22.1467 60.5759C22.1467 77.0559 24.2332 94.4836 31.7809 109.381C32.8923 111.575 34.4292 114.242 36.3042 115.933C36.7954 116.376 37.3902 116.723 38.0439 116.999C39.0726 118.771 40.3208 120.35 41.885 121.582C47.4159 125.941 51.3534 123.459 54.0825 118.405C56.476 118.414 58.4336 118.513 60.0372 116.345C64.3297 110.54 65.4532 104.169 65.5004 97.219C65.558 88.7416 65.316 79.2745 69.6126 71.7179C72.0376 67.453 76.6139 61.8361 81.714 60.5759C82.878 60.2883 84.3888 60.4814 85.5912 60.4974C86.2683 60.5065 87.9966 60.4294 88.4893 61.0075C89.0652 61.6831 89.5892 62.5218 89.9528 63.3188C90.1086 63.7996 90.2832 64.2404 90.4584 65.001C90.4988 65.4961 90.5688 65.9179 90.6614 66.2823C90.8147 67.5096 90.9589 69.0134 91.309 69.8151C91.9291 71.2349 92.2373 72.1702 93.6073 72.1702Z" fill="#304A6F"/>
<path d="M90.4584 65.001C90.8209 69.4406 93.5618 67.9829 93.6073 72.1702C92.2373 72.1702 91.9291 71.2349 91.309 69.8151C90.8183 68.6915 90.7321 66.189 90.4584 65.001ZM90.4584 65.001C90.3701 63.9192 89.5114 62.2065 88.4893 61.0074C87.9966 60.4294 86.2683 60.5065 85.5912 60.4974C84.3888 60.4814 82.878 60.2883 81.714 60.5759C76.6139 61.8361 72.0376 67.453 69.6126 71.7179C65.316 79.2745 65.558 88.7416 65.5004 97.219C65.4532 104.169 64.3297 110.54 60.0372 116.345C58.3776 118.589 56.3387 118.405 53.8298 118.405C50.6167 118.405 47.3767 118.52 44.176 118.189C41.7624 117.939 38.2337 117.673 36.3042 115.933C34.4292 114.242 32.8923 111.575 31.7809 109.381C24.2332 94.4836 22.1467 77.0559 22.1467 60.5759C22.1467 54.5573 21.6225 48.0714 23.2825 42.2151C24.7353 37.0893 27.6872 33.0461 31.5067 29.4449C34.253 26.8557 37.7227 25.5024 41.278 24.4232C47.9277 22.4045 54.7069 21.2872 61.6233 20.7942C68.0624 20.3351 74.6344 19.8298 81.0874 20.4018C88.3442 21.0452 94.9508 24.6343 101.061 28.3856C106.201 31.5416 111.324 35.158 114.964 40.0377C119.919 46.6808 124.499 53.6958 128.514 60.9486C132.556 68.2484 137.572 78.6237 133.449 86.9794C130.431 93.0941 123.139 100.374 125.146 107.812C125.411 108.794 126.293 110.199 127.183 110.715C128.101 111.247 128.486 109.12 128.867 108.44C131.005 104.611 133.692 101.443 135.133 97.219C136.533 93.112 137.6 88.5833 136.288 84.3115C134.058 77.0524 128.178 72.4608 124.441 66.1469C119.583 57.9396 118.285 48.6345 114.866 39.9004C112.087 32.8009 108.717 27.4171 101.687 23.972C94.2797 20.3417 85.8097 19.1507 77.876 17.224C74.9008 16.5015 71.8297 16.714 68.7902 16.714C64.2001 16.714 59.5928 16.5984 55.0047 16.7336C49.2347 16.9036 42.9816 18.2761 37.5379 20.1272C33.6725 21.4416 29.0314 23.7857 27.8646 28.0718C26.2607 33.9631 27.1479 41.1229 27.4338 47.0799C27.8492 55.7364 27.9164 64.3042 28.7653 72.9341C29.7557 83.0022 30.2591 93.3595 33.1124 103.104C34.9133 109.254 36.5855 117.406 41.885 121.582C55.5854 132.379 59.5085 101.201 59.5085 92.9427C59.5085 85.1592 61.0905 78.464 65.0696 71.7572C67.4467 67.7506 70.1873 63.12 74.6842 61.2232C82.272 58.0227 88.6933 55.6098 89.625 61.9098C89.8306 63.2998 90.1434 63.6337 90.4584 65.001Z" stroke="#304A6F" stroke-width="3" stroke-linecap="round"/>
<path d="M98.5511 88.8986C95.5686 90.3309 93.0469 92.1847 90.0326 93.5506C88.2407 94.3626 86.3046 92.4505 84.9779 91.4159C81.1334 88.418 79.5226 84.9262 77.6073 80.6419C76.6114 78.4144 75.9645 76.4615 75.5129 74.0338C75.2565 72.656 75.9426 70.1518 74.9087 72.6269C73.3344 76.3957 71.789 80.7583 72.2505 84.9113C72.6513 88.519 74.0888 90.1636 76.5198 92.6846C78.5113 94.7499 79.9416 97.1636 81.6752 99.4109C84.0658 102.51 87.1703 105.646 88.0389 109.641C89.3886 115.85 87.5549 122.639 85.6626 128.531C84.4427 132.329 83.7687 136.187 82.7627 140.01C81.5153 144.75 77.2367 146.725 73.0157 148.548C68.3051 150.583 61.6241 150.151 56.4594 150.578C49.8569 151.123 15.7004 153.059 9.0612 153.059H70.7602C90.4294 153.059 110.129 152.334 129.806 152.334C133.141 152.334 136.889 152.788 140.157 152.052C142.247 151.582 144.27 151.609 146.4 151.609C147.911 151.609 152.959 152.324 153.448 150.965C153.448 150.965 138.831 150.189 137.781 150.159C135.792 150.103 133.939 149.51 131.981 149.434C127.584 149.265 123.209 149.072 118.77 149.072C112.131 149.072 105.518 150.296 98.9539 149.233C97.1685 148.944 94.8396 149.159 93.1943 148.428C91.5608 147.702 93.1796 144.997 93.4763 143.514C94.3135 139.328 93.0992 134.743 93.6374 130.504C93.9632 127.938 93.9193 125.4 93.9193 122.812C93.9193 119.345 93.8093 115.328 93.1138 111.937C92.3601 108.263 92.6518 104.473 94.3623 101.223C94.9328 100.139 95.9032 99.132 96.5373 98.0414C97.2545 96.8078 97.497 95.2656 97.9872 93.8929C99.2768 90.2821 101.075 87.0165 102.82 83.6224C103.147 82.9873 103.396 82.3351 103.592 81.6705C103.859 80.9566 104.025 80.245 104.061 79.5576C104.28 78.2293 104.397 76.8739 104.593 75.5268C105.182 71.4646 105.881 67.8712 105.881 63.766C105.881 53.5311 97.6539 51.017 88.6833 49.1053C84.6736 48.2508 80.367 47.1205 76.2379 47.2123C72.9716 47.2849 69.2195 50.2386 66.2895 51.4816C64.7353 52.141 63.2595 52.9291 62.0202 54.0996C61.7865 54.3203 61.025 54.4111 60.9529 54.6635C60.8275 55.1022 60.9947 55.2862 60.6508 55.6301C60.1372 56.1437 60.6592 55.7534 60.973 55.5093C62.3613 54.4295 64.0681 53.854 65.6451 53.0927C68.7592 51.5893 72.1303 51.5877 75.5129 51.2802C80.1219 50.8612 86.572 49.736 91.0194 51.2802C94.3219 52.4269 95.6688 56.2768 96.9401 59.2147C99.7619 65.7362 104.069 71.919 104.069 79.2725C104.069 79.3671 104.066 79.4621 104.061 79.5576C103.944 80.2716 103.797 80.9777 103.592 81.6705C102.968 83.3421 101.794 85.0263 100.444 86.4418C100.205 86.693 98.8427 88.3156 98.5511 88.8986Z" fill="#304A6F" stroke="#304A6F" stroke-width="3" stroke-linecap="round"/>
<path d="M113.132 115.823C107.837 106.713 111.486 97.9891 114.219 88.8982C114.745 87.8475 114.582 86.6522 114.582 85.4747C114.582 84.5589 113.815 84.6235 113.333 84.0046C111.944 82.219 109.807 84.4554 108.863 85.6358C106.858 88.1418 105.52 91.1065 105.52 94.3356C105.52 99.6886 105.335 105.055 105.882 110.386C106.514 116.542 108.373 121.839 112.81 126.275C115.011 128.477 118.493 131.583 121.671 132.316C127.466 133.654 133.636 132.978 136.19 127.302C136.61 126.368 137.007 125.23 137.387 123.989C139.349 122.346 140.896 120.15 142.131 117.736C143.919 114.242 145.014 110.507 145.931 106.716C146.201 106.293 146.442 105.812 146.642 105.251C148.865 99.0136 150.142 92.4983 151.938 86.1192C152.856 82.861 154.093 79.9177 154.093 76.493C154.093 72.9891 153.89 69.5501 153.751 66.0614C153.504 59.8993 152.358 54.8299 149.3 49.5077C147.41 46.2167 145.859 42.8345 143.742 39.6399C141.054 35.5818 138.265 31.4632 135.425 27.577C132.453 23.5097 130.475 19.0217 126.725 15.5141C121.075 10.2281 114.712 6.26455 107.614 3.27004C102.445 1.08943 96.3333 1.53814 90.8387 1.53814C84.8148 1.53814 78.7669 1.54189 72.7523 1.91721C69.6521 1.95095 66.56 2.04562 63.4707 2.28326C61.552 2.43086 59.6553 3.03622 57.752 3.65409C54.3678 4.23567 48.3322 5.16304 50.7836 5.16304C53.1498 5.16304 55.4558 4.39947 57.752 3.65409C58.2319 3.57161 58.6585 3.49608 59 3.43115C62.3376 2.79654 65.6662 2.50005 69.0437 2.19919L69.2303 2.18257C70.4027 2.0781 71.5769 1.99056 72.7523 1.91721C73.893 1.9048 75.0348 1.90063 76.178 1.90063H84.4952C88.6605 1.90063 91.5228 4.39214 95.0879 6.33107C105.62 12.059 115.871 18.397 125.074 26.1472C130.874 31.0319 138.389 34.7498 142.856 41.0496C148.11 48.4584 147.86 57.6214 149.3 66.2628C150.265 72.0506 149.743 78.171 149.743 84.0248C149.743 88.608 149.303 92.7888 148.152 97.2154C147.337 100.35 146.697 103.553 145.931 106.716C144.273 109.317 141.516 109.732 140.364 113.188C139.422 116.015 138.476 120.424 137.387 123.989C135.204 125.816 132.51 126.96 129.162 126.96C125.475 126.96 121.878 124.3 119.133 122.086C116.936 120.314 114.563 118.286 113.132 115.823Z" fill="#304A6F" stroke="#304A6F" stroke-width="3" stroke-linecap="round"/>
<path d="M75.9826 112.243C73.1761 117.16 70.6924 122.114 66.5598 126.047C64.9343 127.594 63.3786 129.28 61.1248 129.752C60.0131 129.984 59.1992 130.359 58.1859 130.851C56.7565 131.545 54.7743 131.755 53.234 132.255C52.1857 132.596 50.343 132.679 49.2484 132.703C45.5137 132.787 40.9137 132.655 37.694 130.485C34.311 128.204 31.5309 125.426 28.8772 122.444C26.4241 119.688 24.01 116.425 21.2481 113.997C18.2827 111.389 14.5197 107.574 13.0151 103.84C9.38223 94.8229 5.84891 84.7671 5.84891 74.8134C5.84891 72.6612 5.15387 70.579 5.12424 68.4219C5.06178 63.874 5.2972 59.2805 5.5671 54.7432C5.57418 54.6242 5.5803 54.5008 5.58564 54.3734C6.14658 52.687 6.74707 51.0085 7.37876 49.3288C9.63927 43.3179 11.1506 36.968 13.4579 30.9685C13.8131 30.0449 14.3187 28.875 14.9401 27.7552C15.4773 27.0648 16.0325 26.3845 16.5579 25.6762C16.7877 25.3663 17.0139 25.0539 17.2368 24.7395C17.4226 24.5845 17.6124 24.4478 17.8059 24.3327C19.4234 23.3706 20.6333 21.7853 22.1942 20.7706C24.2323 19.4457 26.0265 18.0858 27.7499 16.3943C29.457 14.7189 31.3483 12.6169 33.3057 11.2241C34.6834 10.2437 41.619 3.7334 39.0024 3.7334C38.3122 3.7334 37.0433 3.96712 36.4258 4.30334C34.983 5.08895 32.8113 4.61251 31.5746 5.56536C29.0736 7.49221 27.3689 9.53269 25.3948 12.2418C22.4613 16.2676 20.1157 20.6788 17.2368 24.7395C16.3704 25.4619 15.5916 26.581 14.9401 27.7552C14.2652 28.6224 13.6187 29.5055 13.0956 30.48C12.7242 31.1718 11.9696 31.5547 11.7268 32.3119C11.2337 33.8493 10.7253 35.3836 10.1969 36.9122C9.88935 37.802 8.98132 41.1267 8.18395 41.8178C5.29378 44.3228 5.73253 50.8699 5.58564 54.3734C4.45734 57.7654 3.48909 61.1889 2.74895 64.7172C1.423 71.0382 1.50092 77.6146 1.50092 84.0546C1.50092 91.1318 3.80406 98.6052 8.56641 103.941C13.4325 109.394 19.7209 113.279 24.7104 118.577C30.6203 124.852 36.3974 131.871 44.0751 136.184C49.3271 139.134 55.2106 138.48 59.6554 133.986C62.1678 131.445 64.7796 129.54 68.0897 128.225C69.8726 127.517 72.62 125.036 73.424 123.32C74.4535 121.122 76.1415 118.561 76.1415 116.134C76.1415 115.637 76.0097 113.733 75.9826 112.243Z" fill="#304A6F"/>
<path d="M76.8662 110.72C73.6724 116.124 71.1199 121.707 66.5598 126.047C64.9343 127.594 63.3786 129.28 61.1248 129.752C60.0131 129.984 59.1992 130.359 58.1859 130.851C56.7565 131.545 54.7742 131.755 53.234 132.255C52.1857 132.596 50.343 132.679 49.2484 132.703C45.5137 132.787 40.9137 132.655 37.694 130.485C34.311 128.204 31.5309 125.426 28.8772 122.444C26.4241 119.688 24.01 116.425 21.2481 113.997C18.2827 111.389 14.5197 107.574 13.0151 103.84C9.38223 94.8229 5.84891 84.7671 5.84891 74.8134C5.84891 72.6612 5.15387 70.579 5.12424 68.4219C5.06178 63.874 5.2972 59.2805 5.5671 54.7432C5.76885 51.3515 5.18865 44.4139 8.18395 41.8178C8.98132 41.1267 9.88935 37.802 10.1969 36.9122C10.7253 35.3836 11.2337 33.8493 11.7268 32.3119C11.9696 31.5547 12.7242 31.1718 13.0956 30.48C14.0351 28.7299 15.3724 27.2745 16.5579 25.6762C19.756 21.3643 22.2341 16.5794 25.3948 12.2418C27.3689 9.53269 29.0736 7.49221 31.5746 5.56536C32.8113 4.61251 34.983 5.08895 36.4258 4.30334C37.0433 3.96712 38.3122 3.7334 39.0024 3.7334C41.619 3.7334 34.6834 10.2437 33.3057 11.2241C31.3483 12.6169 29.457 14.7189 27.7499 16.3943C26.0265 18.0858 24.2323 19.4457 22.1942 20.7706C20.6333 21.7853 19.4234 23.3706 17.8059 24.3327C15.8501 25.4961 14.2654 28.8689 13.4579 30.9685C11.1506 36.968 9.63927 43.3179 7.37876 49.3288C5.47646 54.3872 3.85705 59.4348 2.74895 64.7172C1.423 71.0382 1.50091 77.6146 1.50091 84.0546C1.50091 91.1318 3.80406 98.6052 8.56641 103.941C13.4325 109.394 19.7209 113.279 24.7104 118.577C30.6203 124.852 36.3974 131.871 44.0751 136.184C49.3271 139.134 55.2106 138.48 59.6554 133.986C62.1678 131.445 64.7796 129.54 68.0897 128.225C69.8726 127.517 72.62 125.036 73.424 123.32C74.4535 121.122 76.1415 118.561 76.1415 116.134C76.1415 115.303 75.773 110.54 76.1415 110.353" stroke="#304A6F" stroke-width="3" stroke-linecap="round"/>
<path d="M40.09 93.3692C41.2517 95.8217 42.5977 97.9521 44.6211 99.7732C47.9793 99.7732 46.4336 100.688 46.4336 103.338C46.4336 105.158 42.2739 103.508 41.5198 102.854C39.8243 101.385 38.6386 100.06 38.0157 97.8802C36.2952 91.8584 36.2032 85.5871 34.3103 79.5744C31.6705 71.1892 32.3654 61.5143 33.6659 52.9314C34.2819 48.8652 34.564 45.017 34.9144 40.9289C35.1465 38.2221 35.4884 34.2927 37.613 32.3097C39.4992 30.5492 43.4475 30.51 45.8697 29.9938C48.9172 29.3444 51.9209 28.6975 54.9924 28.1612C59.4458 27.3837 63.929 25.8252 68.4649 25.8252C72.5414 25.8252 77.5736 26.8459 80.8701 29.4098C86.0171 33.4131 92.1929 35.1398 98.1488 37.2839C101.923 38.6425 105.587 40.3927 108.419 43.2247C109.104 43.9097 110.54 46.6597 109.789 47.494C109.221 48.1254 106.149 46.5168 105.54 46.3059C102.294 45.1823 99.3914 43.0045 96.1753 41.6942C94.6893 41.0888 93.5008 40.1429 92.0268 39.5193C90.3741 38.8201 89.4243 37.2122 87.7373 36.4985C85.6773 35.627 83.9509 34.0716 81.9173 33.0549C78.233 31.2127 74.0355 30.2105 70.076 29.0876C66.3874 28.0416 63.3188 27.346 59.5638 28.0807C56.5429 28.6717 53.7324 29.9408 50.9647 31.2827L50.9436 31.2929C48.3423 32.5542 44.9243 34.2113 43.151 36.5388C40.3805 40.1751 38.8559 44.611 37.6532 48.9843C36.6236 52.7285 34.9424 56.879 34.8339 60.7853C34.763 63.3384 34.791 65.9257 34.854 68.4782C34.962 72.8501 35.9821 77.1855 36.8679 81.4473C37.6895 85.4005 38.3412 89.6774 40.09 93.3692Z" fill="#304A6F" stroke="#304A6F" stroke-width="3" stroke-linecap="round"/>
<path d="M91.2955 76.3491C91.1807 76.3088 91.0424 76.2629 90.8904 76.2139C90.6867 75.9627 90.4446 75.7222 90.1635 75.4839C89.8374 75.2074 89.4754 74.918 89.2117 74.579C88.9317 74.219 88.39 74.2325 87.9426 74.3014C87.5344 74.3642 87.2244 74.4012 86.8755 74.6403C86.5371 74.8721 86.1121 75.2123 85.8948 75.5668C85.008 77.0137 84.2591 78.7855 84.8313 80.4736C85.1261 81.3432 85.6344 82.2188 86.277 82.8746C86.504 83.1063 86.7522 83.3717 87.0125 83.5669C87.2689 83.7592 87.6449 83.6966 87.9426 83.6966C88.8742 83.6966 89.9694 83.8584 90.8052 83.3794C91.5267 82.9658 91.9314 82.3601 92.0526 81.5407C92.2276 80.3579 92.2544 79.117 92.222 77.921C92.212 77.5498 92.1747 77.1766 92.0598 76.8214C91.9662 76.5321 91.5314 76.432 91.2955 76.3491Z" fill="#304A6F"/>
<path d="M89.0458 75.6497C89.5722 75.8088 90.7246 76.1487 91.2955 76.3491C91.5314 76.432 91.9662 76.5321 92.0598 76.8214C92.1747 77.1766 92.212 77.5498 92.222 77.921C92.2544 79.117 92.2276 80.3579 92.0526 81.5407C91.9314 82.3601 91.5267 82.9658 90.8052 83.3794C89.9694 83.8584 88.8742 83.6966 87.9426 83.6966C87.6449 83.6966 87.2689 83.7592 87.0125 83.5669C86.7522 83.3717 86.504 83.1063 86.277 82.8746C85.6344 82.2188 85.1261 81.3432 84.8313 80.4736C84.2591 78.7855 85.008 77.0137 85.8948 75.5668C86.1121 75.2123 86.5371 74.8721 86.8755 74.6403C87.2244 74.4012 87.5344 74.3642 87.9426 74.3014C88.39 74.2325 88.9317 74.219 89.2117 74.579C89.4754 74.918 89.8374 75.2074 90.1635 75.4839C91.1997 76.3625 91.7065 77.2703 91.7065 78.6349" stroke="#304A6F" stroke-width="3" stroke-linecap="round"/>
<path d="M61.065 38.8549C64.5777 37.3119 68.8322 39.4249 72.3535 40.4262C72.3332 40.7711 71.1865 40.7545 70.9446 40.7874C67.3452 41.2783 63.3519 41.8753 60.0174 43.3341C59.2534 43.6684 58.5738 43.844 57.9404 44.4268C57.0942 45.2053 56.3783 46.0661 55.6104 46.9193C54.283 48.3943 53.2593 50.1605 51.9078 51.6063C48.8727 54.8532 47.3771 58.8182 47.1486 63.274C47.034 65.5084 46.8326 67.6882 46.8326 69.9387C46.8326 72.5663 47.6953 74.911 48.5123 77.3619C49.2464 79.5644 50.2462 81.8697 50.2462 84.2162C50.2462 85.5854 48.953 89.4129 48.7832 88.0543C48.1632 87.4343 46.2959 85.5949 45.8572 84.8394C44.6177 82.7046 44.2838 79.7122 43.9969 77.3348C43.4206 72.56 44.6183 68.2942 45.4328 63.5991C46.0729 59.9093 47.0135 56.3684 48.0969 52.7983C48.6062 51.1197 49.2943 49.5332 49.9211 47.9037C50.3354 46.8265 51.6657 46.094 52.5129 45.4112C54.5614 43.7602 56.5393 42.0446 58.5725 40.3811C59.3177 39.7714 60.186 39.241 61.065 38.8549Z" fill="#304A6F"/>
<path d="M48.7832 88.0543C48.1632 87.4343 46.2959 85.5949 45.8572 84.8394C44.6177 82.7046 44.2838 79.7122 43.9969 77.3348C43.4206 72.56 44.6183 68.2942 45.4328 63.5991C46.0729 59.9093 47.0135 56.3684 48.0969 52.7983C48.6062 51.1197 49.2943 49.5332 49.9211 47.9037C50.3354 46.8265 51.6657 46.094 52.5129 45.4112C54.5614 43.7602 56.5393 42.0446 58.5725 40.3811C59.3177 39.7714 60.186 39.241 61.065 38.8549C64.5777 37.3119 68.8322 39.4249 72.3535 40.4262C72.3332 40.7711 71.1865 40.7545 70.9446 40.7874C67.3452 41.2783 63.3519 41.8753 60.0174 43.3341C59.2534 43.6684 58.5738 43.844 57.9404 44.4268C57.0942 45.2053 56.3783 46.0661 55.6104 46.9193C54.283 48.3943 53.2593 50.1605 51.9078 51.6063C48.8727 54.8532 47.3771 58.8182 47.1486 63.274C47.034 65.5084 46.8326 67.6882 46.8326 69.9387C46.8326 72.5663 47.6953 74.911 48.5123 77.3619C49.2464 79.5644 50.2462 81.8697 50.2462 84.2162C50.2462 85.5854 48.953 89.4129 48.7832 88.0543ZM48.7832 88.0543C49.0849 88.3561 48.7247 87.5862 48.7832 88.0543Z" stroke="#304A6F" stroke-width="3" stroke-linecap="round"/>
</svg>
