<svg width="327" height="375" viewBox="0 0 327 375" fill="none" xmlns="http://www.w3.org/2000/svg">
<path d="M163.727 181.869V145.27L186.716 130.906L221.2 109.459L253.02 89.6695L284.841 69.8796L326.894 93.187V282.095L289.607 305.18L255.403 286.74L229.751 272.91L227.613 271.757L227.166 230.706L229.155 231.877L237.11 236.557L253.02 245.918L284.841 264.64V112.295L221.2 149.024L186.716 168.925L163.727 181.869Z" fill="url(#paint0_linear_1_880)"/>
<path d="M163.166 327.984L186.716 314.471V249.937V207.351V177.928L221.2 158.502V227.196V268.3V344.595L163.166 374.719V327.984Z" fill="url(#paint1_linear_1_880)"/>
<path d="M163.166 0L221.2 33.3297V99.9437L186.716 121.34V58.8401L163.166 45.6081V0Z" fill="url(#paint2_linear_1_880)"/>
<path d="M163.727 237.894V194.257L175.502 200.804L181.109 204.078V246.926L175.502 243.915L163.727 237.894Z" fill="url(#paint3_linear_1_880)"/>
<path d="M163.727 181.869V145.27L186.716 130.906L221.2 109.459L253.02 89.6695L284.841 69.8796L326.894 93.187V282.095L289.607 305.18L255.403 286.74L229.751 272.91L227.613 271.757L227.166 230.706L229.155 231.877L237.11 236.557L253.02 245.918L284.841 264.64V112.295L221.2 149.024L186.716 168.925L163.727 181.869Z" fill="url(#paint4_linear_1_880)"/>
<path d="M163.166 327.984L186.716 314.471V249.937V207.351V177.928L221.2 158.502V227.196V268.3V344.595L163.166 374.719V327.984Z" fill="url(#paint5_linear_1_880)"/>
<path d="M163.166 0L221.2 33.3297V99.9437L186.716 121.34V58.8401L163.166 45.6081V0Z" fill="url(#paint6_linear_1_880)"/>
<path d="M163.727 237.894V194.257L175.502 200.804L181.109 204.078V246.926L175.502 243.915L163.727 237.894Z" fill="url(#paint7_linear_1_880)"/>
<path d="M163.727 181.869V145.27L186.716 130.906L221.2 109.459L253.02 89.6695L284.841 69.8796L326.894 93.187V282.095L289.607 305.18L255.403 286.74L229.751 272.91L227.613 271.757L227.166 230.706L229.155 231.877L237.11 236.557L253.02 245.918L284.841 264.64V112.295L221.2 149.024L186.716 168.925L163.727 181.869Z" fill="url(#paint8_linear_1_880)"/>
<path d="M163.166 327.984L186.716 314.471V249.937V207.351V177.928L221.2 158.502V227.196V268.3V344.595L163.166 374.719V327.984Z" fill="url(#paint9_linear_1_880)"/>
<path d="M163.166 0L221.2 33.3297V99.9438L186.716 121.34V58.8401L163.166 45.6081V0Z" fill="url(#paint10_linear_1_880)"/>
<path d="M163.727 237.894V194.257L175.502 200.804L181.109 204.078V246.926L175.502 243.915L163.727 237.894Z" fill="url(#paint11_linear_1_880)"/>
<path d="M163.727 181.869V145.27L186.716 130.906L221.2 109.459L253.02 89.6695L284.841 69.8796L326.894 93.187V282.095L289.607 305.18L255.403 286.74L229.751 272.91L227.613 271.757L227.166 230.706L229.155 231.877L237.11 236.557L253.02 245.918L284.841 264.64V112.295L221.2 149.024L186.716 168.925L163.727 181.869Z" fill="url(#paint12_linear_1_880)"/>
<path d="M163.166 327.984L186.716 314.471V249.937V207.351V177.928L221.2 158.502V227.196V268.3V344.595L163.166 374.719V327.984Z" fill="url(#paint13_linear_1_880)"/>
<path d="M163.166 0L221.2 33.3297V99.9438L186.716 121.34V58.8401L163.166 45.6081V0Z" fill="url(#paint14_linear_1_880)"/>
<path d="M163.727 237.894V194.257L175.502 200.804L181.109 204.078V246.926L175.502 243.915L163.727 237.894Z" fill="url(#paint15_linear_1_880)"/>
<path d="M163.729 181.733V145.161L140.66 130.807L106.058 109.377L74.128 89.6022L42.1981 69.8272L7.62939e-05 93.1171V281.883L37.4157 304.951L71.7368 286.525L97.4776 272.705L99.6226 271.553L100.071 230.533L98.0754 231.702L90.0929 236.379L74.128 245.733L42.1981 264.441V112.21L106.058 148.912L140.66 168.798L163.729 181.733Z" fill="url(#paint16_linear_1_880)"/>
<path d="M163.166 327.738L140.66 314.235V249.749V207.196V177.794L106.058 158.383V227.026V268.098V344.336L163.166 374.437V327.738Z" fill="url(#paint17_linear_1_880)"/>
<path d="M163.729 0L106.058 33.3047V99.8687L140.66 121.249V58.796L163.729 45.5739V0Z" fill="url(#paint18_linear_1_880)"/>
<path d="M163.729 237.716V194.111L151.913 200.653L146.287 203.925V246.741L151.913 243.732L163.729 237.716Z" fill="url(#paint19_linear_1_880)"/>
<path d="M163.729 181.733V145.161L140.66 130.807L106.058 109.377L74.128 89.6022L42.1981 69.8272L7.62939e-05 93.1171V281.883L37.4157 304.951L71.7368 286.525L97.4776 272.705L99.6226 271.553L100.071 230.533L98.0754 231.702L90.0929 236.379L74.128 245.733L42.1981 264.441V112.21L106.058 148.912L140.66 168.798L163.729 181.733Z" fill="url(#paint20_linear_1_880)"/>
<path d="M163.166 327.738L140.66 314.235V249.749V207.196V177.794L106.058 158.383V227.026V268.098V344.336L163.166 374.437V327.738Z" fill="url(#paint21_linear_1_880)"/>
<path d="M163.729 0L106.058 33.3047V99.8687L140.66 121.249V58.796L163.729 45.5739V0Z" fill="url(#paint22_linear_1_880)"/>
<path d="M163.729 237.716V194.111L151.913 200.653L146.287 203.925V246.741L151.913 243.732L163.729 237.716Z" fill="url(#paint23_linear_1_880)"/>
<path d="M162.885 328.266L186.481 314.837V250.303L186.63 207.633L186.234 178.076L221.399 158.383V227.477V268.581V344.876L162.885 375V328.266Z" fill="url(#paint24_linear_1_880)"/>
<path d="M163.166 0L221.681 33.3297V99.9438L186.911 121.34V58.8401L163.166 45.6081V0Z" fill="url(#paint25_linear_1_880)"/>
<path d="M162.885 328.266L186.481 314.837V250.303L186.63 207.633L186.234 178.076L221.399 158.383V227.477V268.581V344.876L162.885 375V328.266Z" fill="url(#paint26_linear_1_880)"/>
<path d="M163.166 0L221.681 33.3297V99.9438L186.911 121.34V58.8401L163.166 45.6081V0Z" fill="url(#paint27_linear_1_880)"/>
<path d="M163.715 327.851L140.66 314.102V249.803V207.218V177.795L105.214 157.688V227.063V268.167V344.462L163.715 374.586V327.851Z" fill="url(#paint28_linear_1_880)"/>
<path d="M164.291 0L105.214 33.3297V99.9438L140.66 121.34V58.8401L164.291 45.6081V0Z" fill="url(#paint29_linear_1_880)"/>
<path d="M163.715 327.851L140.66 314.102V249.803V207.218V177.795L105.214 157.688V227.063V268.167V344.462L163.715 374.586V327.851Z" fill="url(#paint30_linear_1_880)"/>
<path d="M164.291 0L105.214 33.3297V99.9438L140.66 121.34V58.8401L164.291 45.6081V0Z" fill="url(#paint31_linear_1_880)"/>
<defs>
<linearGradient id="paint0_linear_1_880" x1="238.079" y1="1.94474e-09" x2="238.387" y2="457.708" gradientUnits="userSpaceOnUse">
<stop offset="0.132621" stop-color="#FFF48A"/>
<stop offset="0.5" stop-color="#FFC400"/>
<stop offset="1" stop-color="#FFF48A"/>
</linearGradient>
<linearGradient id="paint1_linear_1_880" x1="238.079" y1="1.94474e-09" x2="238.387" y2="457.708" gradientUnits="userSpaceOnUse">
<stop offset="0.132621" stop-color="#FFF48A"/>
<stop offset="0.5" stop-color="#FFC400"/>
<stop offset="1" stop-color="#FFF48A"/>
</linearGradient>
<linearGradient id="paint2_linear_1_880" x1="238.079" y1="1.94474e-09" x2="238.387" y2="457.708" gradientUnits="userSpaceOnUse">
<stop offset="0.132621" stop-color="#FFF48A"/>
<stop offset="0.5" stop-color="#FFC400"/>
<stop offset="1" stop-color="#FFF48A"/>
</linearGradient>
<linearGradient id="paint3_linear_1_880" x1="238.079" y1="1.94474e-09" x2="238.387" y2="457.708" gradientUnits="userSpaceOnUse">
<stop offset="0.132621" stop-color="#FFF48A"/>
<stop offset="0.5" stop-color="#FFC400"/>
<stop offset="1" stop-color="#FFF48A"/>
</linearGradient>
<linearGradient id="paint4_linear_1_880" x1="238.079" y1="1.94474e-09" x2="238.387" y2="457.708" gradientUnits="userSpaceOnUse">
<stop offset="0.132621" stop-color="#FFF48A"/>
<stop offset="0.5" stop-color="#FFC400"/>
<stop offset="1" stop-color="#FFF48A"/>
</linearGradient>
<linearGradient id="paint5_linear_1_880" x1="238.079" y1="1.94474e-09" x2="238.387" y2="457.708" gradientUnits="userSpaceOnUse">
<stop offset="0.132621" stop-color="#FFF48A"/>
<stop offset="0.5" stop-color="#FFC400"/>
<stop offset="1" stop-color="#FFF48A"/>
</linearGradient>
<linearGradient id="paint6_linear_1_880" x1="238.079" y1="1.94474e-09" x2="238.387" y2="457.708" gradientUnits="userSpaceOnUse">
<stop offset="0.132621" stop-color="#FFF48A"/>
<stop offset="0.5" stop-color="#FFC400"/>
<stop offset="1" stop-color="#FFF48A"/>
</linearGradient>
<linearGradient id="paint7_linear_1_880" x1="238.079" y1="1.94474e-09" x2="238.387" y2="457.708" gradientUnits="userSpaceOnUse">
<stop offset="0.132621" stop-color="#FFF48A"/>
<stop offset="0.5" stop-color="#FFC400"/>
<stop offset="1" stop-color="#FFF48A"/>
</linearGradient>
<linearGradient id="paint8_linear_1_880" x1="238.079" y1="1.94474e-09" x2="238.387" y2="457.708" gradientUnits="userSpaceOnUse">
<stop offset="0.132621" stop-color="#FFF48A"/>
<stop offset="0.5" stop-color="#FFC400"/>
<stop offset="1" stop-color="#FFF48A"/>
</linearGradient>
<linearGradient id="paint9_linear_1_880" x1="238.079" y1="1.94474e-09" x2="238.387" y2="457.708" gradientUnits="userSpaceOnUse">
<stop offset="0.132621" stop-color="#FFF48A"/>
<stop offset="0.5" stop-color="#FFC400"/>
<stop offset="1" stop-color="#FFF48A"/>
</linearGradient>
<linearGradient id="paint10_linear_1_880" x1="238.079" y1="1.94474e-09" x2="238.387" y2="457.708" gradientUnits="userSpaceOnUse">
<stop offset="0.132621" stop-color="#FFF48A"/>
<stop offset="0.5" stop-color="#FFC400"/>
<stop offset="1" stop-color="#FFF48A"/>
</linearGradient>
<linearGradient id="paint11_linear_1_880" x1="238.079" y1="1.94474e-09" x2="238.387" y2="457.708" gradientUnits="userSpaceOnUse">
<stop offset="0.132621" stop-color="#FFF48A"/>
<stop offset="0.5" stop-color="#FFC400"/>
<stop offset="1" stop-color="#FFF48A"/>
</linearGradient>
<linearGradient id="paint12_linear_1_880" x1="238.079" y1="1.94474e-09" x2="238.387" y2="457.708" gradientUnits="userSpaceOnUse">
<stop offset="0.132621" stop-color="#FFF48A"/>
<stop offset="0.5" stop-color="#FFC400"/>
<stop offset="1" stop-color="#FFF48A"/>
</linearGradient>
<linearGradient id="paint13_linear_1_880" x1="238.079" y1="1.94474e-09" x2="238.387" y2="457.708" gradientUnits="userSpaceOnUse">
<stop offset="0.132621" stop-color="#FFF48A"/>
<stop offset="0.5" stop-color="#FFC400"/>
<stop offset="1" stop-color="#FFF48A"/>
</linearGradient>
<linearGradient id="paint14_linear_1_880" x1="238.079" y1="1.94474e-09" x2="238.387" y2="457.708" gradientUnits="userSpaceOnUse">
<stop offset="0.132621" stop-color="#FFF48A"/>
<stop offset="0.5" stop-color="#FFC400"/>
<stop offset="1" stop-color="#FFF48A"/>
</linearGradient>
<linearGradient id="paint15_linear_1_880" x1="238.079" y1="1.94474e-09" x2="238.387" y2="457.708" gradientUnits="userSpaceOnUse">
<stop offset="0.132621" stop-color="#FFF48A"/>
<stop offset="0.5" stop-color="#FFC400"/>
<stop offset="1" stop-color="#FFF48A"/>
</linearGradient>
<linearGradient id="paint16_linear_1_880" x1="88.815" y1="1.94328e-09" x2="88.5081" y2="457.364" gradientUnits="userSpaceOnUse">
<stop offset="0.132621" stop-color="#FFF48A"/>
<stop offset="0.5" stop-color="#FFC400"/>
<stop offset="1" stop-color="#FFF48A"/>
</linearGradient>
<linearGradient id="paint17_linear_1_880" x1="88.815" y1="1.94328e-09" x2="88.5081" y2="457.364" gradientUnits="userSpaceOnUse">
<stop offset="0.132621" stop-color="#FFF48A"/>
<stop offset="0.5" stop-color="#FFC400"/>
<stop offset="1" stop-color="#FFF48A"/>
</linearGradient>
<linearGradient id="paint18_linear_1_880" x1="88.815" y1="1.94328e-09" x2="88.5081" y2="457.364" gradientUnits="userSpaceOnUse">
<stop offset="0.132621" stop-color="#FFF48A"/>
<stop offset="0.5" stop-color="#FFC400"/>
<stop offset="1" stop-color="#FFF48A"/>
</linearGradient>
<linearGradient id="paint19_linear_1_880" x1="88.815" y1="1.94328e-09" x2="88.5081" y2="457.364" gradientUnits="userSpaceOnUse">
<stop offset="0.132621" stop-color="#FFF48A"/>
<stop offset="0.5" stop-color="#FFC400"/>
<stop offset="1" stop-color="#FFF48A"/>
</linearGradient>
<linearGradient id="paint20_linear_1_880" x1="88.815" y1="1.94328e-09" x2="88.5081" y2="457.364" gradientUnits="userSpaceOnUse">
<stop offset="0.132621" stop-color="#FFF48A"/>
<stop offset="0.5" stop-color="#FFC400"/>
<stop offset="1" stop-color="#FFF48A"/>
</linearGradient>
<linearGradient id="paint21_linear_1_880" x1="88.815" y1="1.94328e-09" x2="88.5081" y2="457.364" gradientUnits="userSpaceOnUse">
<stop offset="0.132621" stop-color="#FFF48A"/>
<stop offset="0.5" stop-color="#FFC400"/>
<stop offset="1" stop-color="#FFF48A"/>
</linearGradient>
<linearGradient id="paint22_linear_1_880" x1="88.815" y1="1.94328e-09" x2="88.5081" y2="457.364" gradientUnits="userSpaceOnUse">
<stop offset="0.132621" stop-color="#FFF48A"/>
<stop offset="0.5" stop-color="#FFC400"/>
<stop offset="1" stop-color="#FFF48A"/>
</linearGradient>
<linearGradient id="paint23_linear_1_880" x1="88.815" y1="1.94328e-09" x2="88.5081" y2="457.364" gradientUnits="userSpaceOnUse">
<stop offset="0.132621" stop-color="#FFF48A"/>
<stop offset="0.5" stop-color="#FFC400"/>
<stop offset="1" stop-color="#FFF48A"/>
</linearGradient>
<linearGradient id="paint24_linear_1_880" x1="196.32" y1="375" x2="8.92013" y2="148.121" gradientUnits="userSpaceOnUse">
<stop stop-color="#3A566B"/>
<stop offset="1" stop-color="#4A6C85"/>
</linearGradient>
<linearGradient id="paint25_linear_1_880" x1="196.32" y1="375" x2="8.92013" y2="148.121" gradientUnits="userSpaceOnUse">
<stop stop-color="#3A566B"/>
<stop offset="1" stop-color="#4A6C85"/>
</linearGradient>
<linearGradient id="paint26_linear_1_880" x1="196.32" y1="375" x2="8.92013" y2="148.121" gradientUnits="userSpaceOnUse">
<stop stop-color="#3A566B"/>
<stop offset="1" stop-color="#4A6C85"/>
</linearGradient>
<linearGradient id="paint27_linear_1_880" x1="196.32" y1="375" x2="8.92013" y2="148.121" gradientUnits="userSpaceOnUse">
<stop stop-color="#3A566B"/>
<stop offset="1" stop-color="#4A6C85"/>
</linearGradient>
<linearGradient id="paint28_linear_1_880" x1="130.696" y1="374.586" x2="317.678" y2="146.878" gradientUnits="userSpaceOnUse">
<stop stop-color="#3A566B"/>
<stop offset="1" stop-color="#4A6C85"/>
</linearGradient>
<linearGradient id="paint29_linear_1_880" x1="130.696" y1="374.586" x2="317.678" y2="146.878" gradientUnits="userSpaceOnUse">
<stop stop-color="#3A566B"/>
<stop offset="1" stop-color="#4A6C85"/>
</linearGradient>
<linearGradient id="paint30_linear_1_880" x1="130.696" y1="374.586" x2="317.678" y2="146.878" gradientUnits="userSpaceOnUse">
<stop stop-color="#3A566B"/>
<stop offset="1" stop-color="#4A6C85"/>
</linearGradient>
<linearGradient id="paint31_linear_1_880" x1="130.696" y1="374.586" x2="317.678" y2="146.878" gradientUnits="userSpaceOnUse">
<stop stop-color="#3A566B"/>
<stop offset="1" stop-color="#4A6C85"/>
</linearGradient>
</defs>
</svg>
