<svg width="640" height="800" viewBox="0 0 640 800" fill="none" xmlns="http://www.w3.org/2000/svg">
  <rect width="640" height="800" rx="48" fill="#E6F3F2"/>
  <rect x="52" y="52" width="536" height="696" rx="40" fill="url(#bg2)"/>
  <circle cx="320" cy="230" r="92" fill="#D8A27B"/>
  <path d="M214 230C214 154.889 274.889 94 350 94C425.111 94 486 154.889 486 230V266H214V230Z" fill="#1D2830"/>
  <rect x="236" y="292" width="168" height="42" rx="21" fill="#F7EFE7"/>
  <path d="M190 800C190 658.614 262.978 548 353 548C443.022 548 516 658.614 516 800H190Z" fill="#1B7D78"/>
  <path d="M96 800C96 628.004 212.856 510 357 510C501.144 510 618 628.004 618 800H96Z" fill="#125C59"/>
  <circle cx="286" cy="228" r="10" fill="#4B332B"/>
  <circle cx="376" cy="228" r="10" fill="#4B332B"/>
  <path d="M288 282C306.783 295.825 337.217 295.825 356 282" stroke="#8E5B43" stroke-width="10" stroke-linecap="round"/>
  <defs>
    <linearGradient id="bg2" x1="320" y1="52" x2="320" y2="748" gradientUnits="userSpaceOnUse">
      <stop stop-color="#F6FFFE"/>
      <stop offset="1" stop-color="#C9E7E4"/>
    </linearGradient>
  </defs>
</svg>
