<svg width="640" height="800" viewBox="0 0 640 800" fill="none" xmlns="http://www.w3.org/2000/svg">
  <rect width="640" height="800" rx="48" fill="#E9ECF7"/>
  <rect x="52" y="52" width="536" height="696" rx="40" fill="url(#bg4)"/>
  <circle cx="320" cy="230" r="92" fill="#F1C59F"/>
  <path d="M206 244C206 157.88 275.88 88 362 88C448.12 88 518 157.88 518 244V294H206V244Z" fill="#2A1D23"/>
  <path d="M184 800C184 650.091 263.184 540 360.833 540C458.483 540 537.667 650.091 537.667 800H184Z" fill="#5B5BD6"/>
  <path d="M90 800C90 620.591 214.198 500 367.5 500C520.802 500 645 620.591 645 800H90Z" fill="#33369C"/>
  <circle cx="286" cy="228" r="10" fill="#53382B"/>
  <circle cx="374" cy="228" r="10" fill="#53382B"/>
  <path d="M286 284C307.491 299.108 340.509 299.108 362 284" stroke="#9E6A56" stroke-width="10" stroke-linecap="round"/>
  <defs>
    <linearGradient id="bg4" x1="320" y1="52" x2="320" y2="748" gradientUnits="userSpaceOnUse">
      <stop stop-color="#FDFEFF"/>
      <stop offset="1" stop-color="#D2D8F5"/>
    </linearGradient>
  </defs>
</svg>
