<svg width="640" height="800" viewBox="0 0 640 800" fill="none" xmlns="http://www.w3.org/2000/svg">
  <rect width="640" height="800" rx="48" fill="#F6EFD8"/>
  <rect x="52" y="52" width="536" height="696" rx="40" fill="url(#bg3)"/>
  <circle cx="320" cy="232" r="92" fill="#E0B48F"/>
  <path d="M214 244C214 161.157 281.157 94 364 94C446.843 94 514 161.157 514 244V292H214V244Z" fill="#4A3729"/>
  <path d="M188 800C188 656.405 267.543 548 365.667 548C463.79 548 543.333 656.405 543.333 800H188Z" fill="#C16E2F"/>
  <path d="M98 800C98 626.072 220.832 512 372.333 512C523.835 512 646.667 626.072 646.667 800H98Z" fill="#8B4A1F"/>
  <circle cx="286" cy="228" r="10" fill="#5D3E27"/>
  <circle cx="374" cy="228" r="10" fill="#5D3E27"/>
  <path d="M287 286C307.106 302.94 338.894 302.94 359 286" stroke="#946342" stroke-width="10" stroke-linecap="round"/>
  <defs>
    <linearGradient id="bg3" x1="320" y1="52" x2="320" y2="748" gradientUnits="userSpaceOnUse">
      <stop stop-color="#FFFBEF"/>
      <stop offset="1" stop-color="#F0D58E"/>
    </linearGradient>
  </defs>
</svg>
